<?xml version="1.0" encoding="utf-8"?>
<!-- Generator: Adobe Illustrator 23.0.0, SVG Export Plug-In . SVG Version: 6.00 Build 0)  -->
<svg version="1.1" id="Layer_1" xmlns="http://www.w3.org/2000/svg" xmlns:xlink="http://www.w3.org/1999/xlink" x="0px" y="0px"
	 viewBox="0 0 54 54" style="enable-background:new 0 0 54 54;" xml:space="preserve">
<style type="text/css">
	.st0{fill:#FFFFFF;stroke:#007CD2;stroke-miterlimit:10;}
	.st1{display:none;fill:#3A3A3A;stroke:#FFFFFF;stroke-miterlimit:10;}
	.st2{display:none;fill:#2699FF;enable-background:new    ;}
	.st3{font-family:'Charter-Bold';}
	.st4{font-size:58px;}
	.st5{display:none;fill:none;}
	.st6{display:none;}
	.st7{display:inline;}
	.st8{fill:#141414;}
	.st9{fill:#3C3C3C;}
	.st10{display:none;fill:#3C3C3C;}
	.st11{display:inline;fill:#66C6FF;}
	.st12{display:inline;fill:#3C3C3C;}
	.st13{fill:#3A3A3A;}
	.st14{enable-background:new    ;}
	.st15{fill:#2699FF;}
	.st16{fill:none;}
	.st17{fill:#66C6FF;}
</style>
<rect x="-0.7" y="-0.3" class="st0" width="55.1" height="55.1"/>
<path class="st1" d="M50.7,28.6c-1.1,12.4-10,20.9-22.9,20.2C14.5,48.1,4,38.9,4,26.1S15.5,2.3,28.9,2.3S51.8,15.8,50.7,28.6z"/>
<text transform="matrix(1 0 0 1 -0.4783 42.1693)" class="st2 st3 st4">@</text>
<path class="st5" d="M28.5,31.9c0,0,1.4-1,0.9-1.6c0,0-0.1-0.1-0.1-0.2c-0.2,0.1-0.4,0.4-0.7,0.6l-1.9,1.6c0.4,0.2,0.8,0.3,0.9,0.4
	C27.6,32.8,28.2,32.1,28.5,31.9z"/>
<g id="Layer_3" class="st6">
	<g class="st7">
		<path class="st8" d="M35.8,23.5l2.2-2.4c0.4-0.5-0.1-1.2-0.1-1.2l-2.1-2.4c-0.7-0.8-1.1-0.8-1.1-0.8h-2.4c0.3-0.9,0.2-2.8,0.2-2.8
			c-0.1-2.6-2.2-2.2-2.2-2.2c-2.6,0.4-2,2.6-2,2.6c0,1.2,1.7,2.9,1.7,2.9l-2.6,0.9c-1.3,0.8-1,4.8-1,4.8c-0.6,1.8,0.8,2.4,0.8,2.4
			c0,0.5,0.6,1.3,0.6,1.3l-1,0.3l-0.1,0.9C26.3,28,24,30.7,24,30.7c-0.1,0.2-0.2,0.3-0.3,0.5c-1.3,2.1,0.2,2.7,0.2,2.7
			c1.3,0.3,2.7-1.2,2.7-1.2l0.2-0.1l1.9-1.6c0.3-0.2,0.5-0.5,0.7-0.6c0-0.2-0.1-0.3-0.1-0.5c0,0-0.8-1,0-1.1c0,0,0.5-2.6,0.6-2.8
			l0.5-0.1c0,0-0.1-2.5,1.3-3.5c0,0,0.3-1.3,0-1.7c0,0-0.6-1.3,0-1.7c0,0,0.1,0,0.1,0.4c0,0,0,0.4,0.3,0.6c0,0,0.6-0.8,0.5-1.3
			c0,0,0-0.2,0.3-0.2c0,0,0.2,0,0.2,0.3c0,0,0.1-0.2,0.3-0.2c0,0,0.2,0,0.2,0.3c0,0,0.1-0.1,0.3-0.1c0,0,0.2,0.1,0.1,0.4
			c0,0,0.4-0.1,0.3,0.3c0,0-0.1,0.2-0.4,0.7c0,0-0.5,0.8-0.5,1.3c0,0-0.5,0.9-0.4,1.7c0,0-0.1,2.2-0.6,3.3l0.4,0.2
			c0,0-0.3,1.5-0.5,1.9c0,0,0.2,0.8,0.1,1.4h0.3c-0.6,0.9,1.1,2.1,1.1,2.1c-0.2,0.1-0.2,2.6-0.2,2.6c0,0.7,1.3,1.2,1.3,1.2
			c0.2,0.3,0.3,1.9,0.3,1.9c0.1,0.4-0.3,0.9-0.5,1.3c-0.2,0.4,0.6,0.8,0.6,0.8c0.2,0.5,0.8,1.1,0.8,1.1c0.4,0.2,0.4-0.2,0.4-0.2
			c0.2,0.1,0.3-0.2,0.3-0.2c0.3,0.1,0.2-0.2,0.2-0.2c0.2,0.1,0.2-0.1,0.2-0.1c0.4,0-0.1-0.4-0.1-0.4c-0.6-0.5-0.7-1.4-0.7-1.4
			c-0.3-1,0.1-2.5,0.1-2.5c0.6,0,0.8-0.5,0.8-0.5c0.2-0.6-0.2-2.4-0.2-2.4c-0.3-0.9,0.2-1.6,0.2-1.6c0.9-1.8-0.5-2.6-0.5-2.6
			c0.1-0.6-0.2-1.3-0.2-1.3c0.2-0.6-0.2-1.2-0.2-1.2c0.5-0.5-1.4-1.2-1.4-1.2c0.1-0.6-0.2-1.1-0.2-1.1c0.1-0.3,0.1-0.9,0.1-0.9
			C35.1,23.4,35.8,23.5,35.8,23.5z"/>
		<path class="st8" d="M30.4,25.9L29.9,26c-0.2,0.2-0.6,2.8-0.6,2.8c-0.8,0.1,0,1.1,0,1.1c0,0.1,0,0.3,0.1,0.5
			c0,0.1,0.1,0.2,0.1,0.2c0.5,0.6-0.9,1.6-0.9,1.6c-0.3,0.1-0.9,0.9-0.9,0.9c-0.1,0-0.4-0.2-0.9-0.4l-0.2,0.1c0,0-1.3,1.5-2.7,1.2
			c0,0-1.5-0.6-0.2-2.7l0,0c-1.4-5.2-4.8-7.5-4.8-7.5c-1.7-0.9-1.7-1.5-1.7-1.5c-0.1-0.5-0.5-0.1-0.5-0.1c-0.9-0.7-1.9-2.4-1.9-2.4
			c-0.4-0.9-1.5-2.1-1.5-2.1c0-0.8-0.6-0.9-0.6-0.9c0-0.4-0.2-0.2-0.2-0.2c-0.8,0.3-0.1,1.1-0.1,1.1c-0.4,1,0.3,1.3,0.3,1.3
			c0.3,0.3,0.2,0.5,0.2,0.5c-1.3,2,0.2,1.9,0.2,1.9c2.2-0.2,2,2.2,2,2.2c-0.7,0.5-1.5,1.9-1.5,1.9c0.3,0.1,1.7,0.4,1.7,0.4
			c0.2,0.6,2.1,2.1,2.1,2.1c0,0.7,2,3.1,2,3.1c0.3,0.8,0.2,2.2,0.2,2.2c-0.4,0-0.7,0.2-0.7,0.2l-0.7,1.3c-3.1,0.2-3.5,0.6-3.5,0.6
			c-0.2-0.1-1.5-0.1-1.5-0.1c-0.5-0.7-1-0.7-1-0.7c-0.7,0-0.1,0.6-0.1,0.6c-0.1,0.2,0,0.4,0,0.4c-2.7,0.9-1.5,2.4-1.5,2.4
			c0.7,1.3,3.1,0.6,3.1,0.6c0.8,0.4,4.4,0.4,4.4,0.4c0.2,1.3,4.1,1.3,4.1,1.3c0.9,0.6,2.2,0,2.2,0c1.1-0.4,2.2,0,2.2,0
			c0.2,0.1,1.3,0.1,1.3,0.1c1,0.1,1.5-0.9,1.5-0.9c0.9-0.1,1.2-0.8,1.2-0.8c1.8-0.3,2.5-1.8,2.5-1.8c0.6-1.6-0.4-2.6-0.4-2.6
			c0.2-0.9-0.2-1.7-0.2-1.7c0.4-0.9-0.4-2.3-0.4-2.3c0.1-0.2,0.2-0.3,0.2-0.6c0.1-0.7-0.1-1.4-0.1-1.4c0.3-0.4,0.5-1.9,0.5-1.9
			l-0.4-0.2c0.6-1.1,0.6-3.3,0.6-3.3c0-0.1,0-0.1,0-0.2c-1,0-1.7,0.4-2,0.6C30.4,24.6,30.4,25.9,30.4,25.9z"/>
		<path class="st8" d="M31.8,21.1c0.1,0.5-0.1,1.3-0.1,1.3c-0.4,0.3-0.6,0.6-0.8,1.1c0.3-0.2,1-0.6,2-0.6c0-0.8,0.4-1.6,0.4-1.6
			c0-0.1,0-0.1,0-0.2C33,21.1,32.1,21.1,31.8,21.1z"/>
		<path class="st9" d="M33.9,19.1c0.1-0.4-0.1-0.4-0.1-0.4c-0.2,0-0.3,0.1-0.3,0.1c0-0.3-0.2-0.3-0.2-0.3c-0.2,0-0.3,0.2-0.3,0.2
			c0-0.3-0.2-0.3-0.2-0.3c-0.2,0-0.3,0.2-0.3,0.2c0.1,0.5-0.5,1.3-0.5,1.3c-0.3-0.2-0.3-0.6-0.3-0.6c0-0.3-0.1-0.4-0.1-0.4
			c-0.6,0.4,0,1.7,0,1.7c0.1,0.1,0.1,0.2,0.1,0.4c0.3,0,1.2,0,1.5,0c0.1-0.5,0.5-1.1,0.5-1.1c0.3-0.4,0.4-0.7,0.4-0.7
			C34.3,19,33.9,19.1,33.9,19.1z"/>
		<path class="st8" d="M29.6,26.3c0,0,0.6,0.4,1.1,0.2c0,0,0.6-0.1,0.8,0.2c0,0,1,0.1,0.7,0.3c0,0,0.2,0.3-0.1,0.3
			c0,0,0,0.3-0.2,0.3c0,0,0,0.3-0.2,0.3c0,0,0.2,0.2-0.1,0.2c0,0-0.5,0.2-1.4-0.2l-0.7-0.3L29.6,26.3z"/>
	</g>
</g>
<path class="st10" d="M33.8,19c0.1-0.4-0.1-0.4-0.1-0.4c-0.2,0-0.3,0.1-0.3,0.1c0-0.3-0.2-0.3-0.2-0.3c-0.2,0-0.3,0.2-0.3,0.2
	c0-0.3-0.2-0.3-0.2-0.3c-0.2,0-0.3,0.2-0.3,0.2c0.1,0.5-0.5,1.3-0.5,1.3c-0.3-0.2-0.3-0.6-0.3-0.6c0-0.3-0.1-0.4-0.1-0.4
	c-0.6,0.4,0,1.7,0,1.7c0.1,0.1,0.1,0.2,0.1,0.4c0.3,0,1.2,0,1.5,0c0.1-0.5,0.5-1.1,0.5-1.1c0.3-0.4,0.4-0.7,0.4-0.7
	C34.2,18.9,33.8,19,33.8,19z"/>
<g class="st6">
	<path class="st11" d="M35.7,23.4l2.1-2.4c0.4-0.5-0.1-1.2-0.1-1.2l-2.1-2.4c-0.7-0.8-1.1-0.8-1.1-0.8h-2.4c0.3-0.8,0.2-2.8,0.2-2.8
		c-0.1-2.6-2.2-2.2-2.2-2.2c-2.6,0.4-2,2.6-2,2.6c0,1.1,1.7,2.8,1.7,2.8l-2.6,1c-1.3,0.8-1,4.8-1,4.8c-0.6,1.8,0.8,2.4,0.8,2.4
		c0,0.5,0.6,1.3,0.6,1.3l-1,0.3l-0.1,0.9c-0.3,0.1-2.6,2.9-2.6,2.9c-0.1,0.2-0.2,0.3-0.3,0.5c-1.3,2.1,0.2,2.7,0.2,2.7
		c1.3,0.3,2.7-1.1,2.7-1.1l0.1-0.1l1.9-1.6c0.3-0.2,0.5-0.4,0.7-0.6c0-0.2-0.1-0.3-0.1-0.5c0,0-0.8-1,0-1.1c0,0,0.5-2.5,0.6-2.8
		l0.5-0.1c0,0-0.1-2.5,1.2-3.4c0,0,0.3-1.3,0-1.7c0,0-0.6-1.3,0-1.7c0,0,0.1,0,0.1,0.4c0,0,0,0.4,0.3,0.6c0,0,0.6-0.8,0.5-1.3
		c0,0,0-0.2,0.3-0.2c0,0,0.2,0,0.2,0.3c0,0,0.1-0.2,0.3-0.2c0,0,0.2,0,0.2,0.3c0,0,0.1-0.1,0.3-0.1c0,0,0.2,0.1,0.1,0.4
		c0,0,0.4-0.1,0.3,0.3c0,0,0,0.2-0.4,0.7c0,0-0.5,0.8-0.5,1.3c0,0-0.5,0.9-0.4,1.7c0,0-0.1,2.2-0.6,3.2l0.4,0.2c0,0-0.3,1.5-0.5,1.9
		c0,0,0.2,0.8,0.1,1.4h0.3c-0.5,0.9,1.1,2.1,1.1,2.1c-0.2,0.1-0.2,2.6-0.2,2.6c0,0.7,1.3,1.1,1.3,1.1c0.2,0.3,0.3,1.9,0.3,1.9
		c0.1,0.4-0.3,0.9-0.5,1.3c-0.2,0.4,0.6,0.8,0.6,0.8c0.2,0.5,0.8,1.1,0.8,1.1c0.4,0.2,0.4-0.2,0.4-0.2c0.2,0.1,0.3-0.2,0.3-0.2
		c0.2,0.1,0.2-0.2,0.2-0.2c0.2,0.1,0.2-0.1,0.2-0.1c0.4,0-0.1-0.4-0.1-0.4c-0.6-0.5-0.7-1.4-0.7-1.4c-0.3-1,0.1-2.5,0.1-2.5
		c0.6,0,0.8-0.5,0.8-0.5c0.2-0.6-0.2-2.4-0.2-2.4c-0.3-0.9,0.2-1.6,0.2-1.6c0.9-1.8-0.5-2.6-0.5-2.6c0.1-0.6-0.2-1.3-0.2-1.3
		c0.2-0.6-0.2-1.2-0.2-1.2c0.5-0.5-1.4-1.2-1.4-1.2c0.1-0.6-0.2-1.1-0.2-1.1c0-0.3,0-0.9,0-0.9C35.1,23.3,35.7,23.4,35.7,23.4z"/>
	<path class="st12" d="M30.4,25.7l-0.5,0.1c-0.1,0.2-0.6,2.8-0.6,2.8c-0.8,0.1,0,1.1,0,1.1c0,0.1,0,0.3,0.1,0.5c0,0.1,0,0.2,0.1,0.2
		C30,31,28.6,32,28.6,32c-0.3,0.1-0.9,0.9-0.9,0.9c-0.1,0-0.4-0.2-0.9-0.4l-0.1,0.1c0,0-1.3,1.4-2.7,1.1c0,0-1.5-0.6-0.2-2.7l0,0
		c-1.4-5.1-4.7-7.4-4.7-7.4c-1.6-0.9-1.7-1.4-1.7-1.4c-0.1-0.5-0.5-0.1-0.5-0.1C16,21.4,15,19.7,15,19.7c-0.4-0.9-1.5-2.1-1.5-2.1
		c0-0.8-0.6-0.9-0.6-0.9c0-0.4-0.2-0.2-0.2-0.2c-0.8,0.3-0.1,1.1-0.1,1.1c-0.4,1,0.3,1.3,0.3,1.3c0.3,0.3,0.2,0.5,0.2,0.5
		c-1.3,2,0.2,1.8,0.2,1.8c2.1-0.2,2,2.2,2,2.2c-0.7,0.5-1.5,1.9-1.5,1.9c0.3,0.1,1.7,0.4,1.7,0.4c0.2,0.6,2,2.1,2,2.1
		c0,0.7,2,3.1,2,3.1c0.3,0.8,0.2,2.2,0.2,2.2c-0.4,0-0.7,0.2-0.7,0.2l-0.7,1.3c-3.1,0.1-3.4,0.6-3.4,0.6c-0.2-0.1-1.5-0.1-1.5-0.1
		c-0.5-0.7-1-0.7-1-0.7c-0.7,0-0.1,0.6-0.1,0.6c-0.1,0.2,0,0.4,0,0.4c-2.6,0.9-1.5,2.4-1.5,2.4c0.7,1.3,3.1,0.6,3.1,0.6
		c0.8,0.4,4.4,0.4,4.4,0.4c0.2,1.2,4.1,1.3,4.1,1.3c0.9,0.6,2.2,0,2.2,0c1-0.4,2.2,0,2.2,0c0.2,0.1,1.3,0.1,1.3,0.1
		c1,0.1,1.5-0.9,1.5-0.9c0.9-0.1,1.2-0.8,1.2-0.8c1.8-0.3,2.4-1.8,2.4-1.8c0.6-1.6-0.4-2.6-0.4-2.6c0.2-0.8-0.2-1.7-0.2-1.7
		c0.4-0.9-0.4-2.3-0.4-2.3c0.1-0.2,0.2-0.3,0.2-0.5c0.1-0.6-0.1-1.4-0.1-1.4c0.3-0.4,0.5-1.9,0.5-1.9l-0.4-0.2
		C33,25,33,22.9,33,22.9c0-0.1,0-0.1,0-0.2c-1,0-1.7,0.4-2,0.6C30.4,24.4,30.4,25.7,30.4,25.7z"/>
	<path class="st11" d="M31.7,21c0.1,0.5-0.1,1.3-0.1,1.3c-0.4,0.3-0.6,0.6-0.8,1c0.3-0.2,1-0.6,2-0.6c0-0.8,0.4-1.5,0.4-1.5
		c0-0.1,0-0.1,0-0.2C32.9,21,32,21,31.7,21z"/>
	<path class="st11" d="M29.6,26.2c0,0,0.5,0.4,1,0.2c0,0,0.6-0.1,0.8,0.2c0,0,1,0.1,0.7,0.3c0,0,0.2,0.3-0.1,0.3c0,0,0,0.3-0.2,0.3
		c0,0,0,0.3-0.2,0.3c0,0,0.2,0.2-0.1,0.2c0,0-0.5,0.2-1.4-0.2l-0.7-0.3L29.6,26.2z"/>
</g>
<g>
	<g>
		<circle class="st13" cx="28.1" cy="26.4" r="23.4"/>
		<g class="st14">
			<path class="st15" d="M30,35.1c-1.6,1.6-3.1,2.8-4.5,3.6c-1.4,0.8-2.7,1.2-4,1.2c-2.2,0-4.1-0.9-5.5-2.7
				c-1.4-1.8-2.1-4.2-2.1-7.1c0-2,0.3-3.8,0.8-5.6c0.6-1.8,1.4-3.4,2.5-4.8c1.4-1.9,3.2-3.5,5.2-4.6c2.1-1.1,4.1-1.7,6.3-1.7
				c1,0,1.9,0.1,2.9,0.4c1,0.3,2,0.7,3,1.2l1-1.4h4.1c-0.4,1.1-0.9,2.7-1.3,4.9c-0.1,0.6-0.2,1.1-0.3,1.4L36,30.2
				c-0.2,0.8-0.3,1.5-0.4,2.1c-0.1,0.6-0.1,1.2-0.1,1.7c0,0.6,0.2,1.1,0.6,1.5c0.4,0.4,0.9,0.6,1.5,0.6c0.9,0,1.7-0.3,2.6-0.8
				c0.9-0.5,1.7-1.3,2.5-2.3c1.2-1.6,2.2-3.4,2.9-5.6c0.7-2.1,1-4.3,1-6.6c0-5-1.5-9.1-4.6-12.1C38.8,5.6,34.7,4,29.6,4
				c-3,0-5.8,0.5-8.4,1.5c-2.6,1-4.9,2.5-7,4.5c-2.4,2.3-4.3,4.9-5.5,7.8c-1.2,2.9-1.8,6.1-1.8,9.6c0,6.5,1.9,11.8,5.7,15.8
				c3.8,4,8.9,6,15.2,6c2.6,0,5.2-0.4,7.8-1.1c2.6-0.8,5.2-2.4,7.7-3.9l1.1,3c-3.1,1.8-6.2,3.1-9.3,4c-3.1,0.9-6.1,1.4-8.9,1.4
				c-3.3,0-6.4-0.6-9.4-1.8c-2.9-1.2-5.5-2.9-7.9-5.1C6.8,43.5,5.1,41,4,38c-1.1-2.9-1.7-6.2-1.7-9.8c0-4,0.7-7.8,2.2-11.2
				c1.4-3.4,3.6-6.4,6.5-9.1c2.4-2.2,5.3-4,8.5-5.1c3.2-1.2,6.6-1.8,10.2-1.8c6,0,10.9,1.8,14.6,5.4c3.7,3.6,5.5,8.3,5.5,14.1
				c0,2.3-0.3,4.4-0.8,6.4c-0.6,2-1.4,3.9-2.5,5.6c-1.4,2.2-3.2,4-5.3,5.3c-2.1,1.3-4.2,2-6.3,2c-1.6,0-2.8-0.4-3.6-1.2
				C30.4,37.8,30,36.6,30,35.1z M30.2,16.3c-0.3,0-0.5-0.1-0.7-0.1c-0.2,0-0.4,0-0.5,0c-2.5,0-4.6,1.2-6.2,3.7
				c-1.7,2.4-2.5,5.5-2.5,9.2c0,2.1,0.4,3.7,1.1,4.8c0.7,1.1,1.8,1.6,3.3,1.6c0.9,0,1.8-0.3,2.8-1c0.9-0.6,1.9-1.6,2.8-2.9l2.2-12.1
				L30.2,16.3z"/>
		</g>
	</g>
	<g>
		<path class="st16" d="M29.6,32.3c0,0,1.3-0.9,0.9-1.5c0,0,0-0.1-0.1-0.2c-0.2,0.1-0.4,0.3-0.7,0.6l-1.8,1.5
			c0.4,0.2,0.7,0.3,0.8,0.4C28.7,33.1,29.3,32.4,29.6,32.3z"/>
		<path class="st8" d="M36.5,24.3l2-2.3c0.4-0.5-0.1-1.1-0.1-1.1l-2-2.3c-0.6-0.7-1.1-0.8-1.1-0.8l-2.3,0c0.3-0.8,0.2-2.6,0.2-2.6
			c-0.1-2.5-2.1-2.1-2.1-2.1c-2.5,0.4-1.9,2.5-1.9,2.5c0,1.1,1.6,2.7,1.6,2.7l-2.4,0.9c-1.3,0.8-0.9,4.6-0.9,4.6
			c-0.5,1.7,0.8,2.3,0.8,2.3c0,0.5,0.6,1.2,0.6,1.2l-0.9,0.3l-0.1,0.8c-0.3,0.1-2.4,2.7-2.4,2.7c-0.1,0.2-0.2,0.3-0.3,0.5
			c-1.2,2,0.2,2.6,0.2,2.6c1.3,0.3,2.5-1.1,2.5-1.1l0.1-0.1l1.8-1.5c0.3-0.2,0.5-0.4,0.7-0.6c0-0.1-0.1-0.3-0.1-0.5c0,0-0.7-1,0-1.1
			c0,0,0.4-2.4,0.6-2.6l0.5-0.1c0,0-0.1-2.3,1.2-3.3c0,0,0.3-1.2,0-1.6c0,0-0.6-1.3,0-1.6c0,0,0.1,0,0.1,0.4c0,0,0,0.3,0.3,0.5
			c0,0,0.5-0.8,0.5-1.3c0,0,0-0.2,0.3-0.2c0,0,0.2,0,0.2,0.3c0,0,0.1-0.2,0.3-0.2c0,0,0.2,0,0.2,0.3c0,0,0.1-0.1,0.3-0.1
			c0,0,0.2,0.1,0.1,0.4c0,0,0.4-0.1,0.3,0.2c0,0,0,0.2-0.4,0.6c0,0-0.5,0.7-0.5,1.2c0,0-0.4,0.8-0.4,1.6c0,0-0.1,2.1-0.6,3.1
			l0.4,0.2c0,0-0.3,1.4-0.5,1.8c0,0,0.2,0.7,0.1,1.3l0.3,0c-0.5,0.9,1.1,2,1.1,2c-0.2,0.1-0.2,2.5-0.2,2.5c0,0.7,1.3,1.1,1.3,1.1
			c0.2,0.3,0.3,1.8,0.3,1.8c0.1,0.4-0.3,0.9-0.5,1.3c-0.2,0.4,0.5,0.8,0.5,0.8c0.1,0.5,0.8,1,0.8,1c0.3,0.2,0.4-0.2,0.4-0.2
			c0.2,0.1,0.3-0.2,0.3-0.2c0.2,0.1,0.2-0.2,0.2-0.2c0.2,0.1,0.2-0.1,0.2-0.1c0.3,0-0.1-0.4-0.1-0.4c-0.6-0.5-0.7-1.3-0.7-1.3
			c-0.3-1,0.1-2.4,0.1-2.4c0.6,0,0.8-0.4,0.8-0.4c0.2-0.6-0.2-2.3-0.2-2.3c-0.3-0.8,0.2-1.5,0.2-1.5c0.9-1.7-0.5-2.4-0.5-2.4
			c0.1-0.6-0.2-1.3-0.2-1.3c0.2-0.6-0.2-1.2-0.2-1.2c0.5-0.4-1.3-1.1-1.3-1.1c0.1-0.5-0.2-1-0.2-1c0-0.3,0-0.9,0-0.9
			C35.9,24.2,36.5,24.3,36.5,24.3z"/>
		<path class="st8" d="M31.4,26.6l-0.5,0.1c-0.1,0.2-0.6,2.6-0.6,2.6c-0.8,0.1,0,1.1,0,1.1c0,0.1,0,0.3,0.1,0.5c0,0.1,0,0.2,0.1,0.2
			c0.5,0.6-0.9,1.5-0.9,1.5c-0.3,0.1-0.8,0.8-0.8,0.8c-0.1,0-0.4-0.2-0.8-0.4l-0.1,0.1c0,0-1.3,1.4-2.5,1.1c0,0-1.5-0.5-0.2-2.6
			c0,0,0,0,0,0c-1.3-4.9-4.5-7-4.5-7c-1.6-0.9-1.6-1.4-1.6-1.4c-0.1-0.4-0.5-0.1-0.5-0.1c-0.9-0.7-1.8-2.3-1.8-2.3
			c-0.4-0.9-1.4-2-1.4-2c0-0.8-0.6-0.8-0.6-0.8c0-0.4-0.2-0.2-0.2-0.2c-0.7,0.3-0.1,1-0.1,1c-0.3,1,0.3,1.3,0.3,1.3
			c0.3,0.3,0.2,0.4,0.2,0.4c-1.2,1.9,0.2,1.8,0.2,1.8c2-0.2,1.9,2.1,1.9,2.1c-0.7,0.5-1.4,1.8-1.4,1.8c0.3,0.1,1.6,0.4,1.6,0.4
			c0.2,0.5,1.9,2,1.9,2c0,0.6,1.9,2.9,1.9,2.9c0.3,0.8,0.2,2.1,0.2,2.1c-0.4,0-0.7,0.2-0.7,0.2l-0.7,1.3c-2.9,0.1-3.3,0.6-3.3,0.6
			c-0.2-0.1-1.4-0.1-1.4-0.1c-0.5-0.7-0.9-0.7-0.9-0.7c-0.6,0-0.1,0.6-0.1,0.6c-0.1,0.2,0,0.4,0,0.4c-2.5,0.9-1.4,2.3-1.4,2.3
			c0.7,1.2,3,0.6,3,0.6c0.7,0.4,4.2,0.4,4.2,0.4c0.2,1.2,3.9,1.2,3.9,1.2c0.9,0.5,2.1,0,2.1,0c1-0.4,2.1,0,2.1,0
			c0.2,0.1,1.2,0.1,1.2,0.1c1,0.1,1.4-0.9,1.4-0.9c0.9-0.1,1.1-0.7,1.1-0.7c1.7-0.2,2.3-1.7,2.3-1.7c0.6-1.5-0.4-2.5-0.4-2.5
			c0.2-0.8-0.2-1.6-0.2-1.6c0.4-0.9-0.4-2.2-0.4-2.2c0.1-0.1,0.2-0.3,0.2-0.5C33.2,29.7,33,29,33,29c0.2-0.4,0.5-1.8,0.5-1.8
			L33.1,27c0.5-1,0.6-3.1,0.6-3.1c0-0.1,0-0.1,0-0.2c-0.9,0-1.6,0.4-1.9,0.6C31.4,25.3,31.4,26.6,31.4,26.6z"/>
		<path class="st8" d="M32.7,22.1c0.1,0.5-0.1,1.3-0.1,1.3c-0.3,0.3-0.6,0.6-0.8,1c0.3-0.2,1-0.6,1.9-0.6c0-0.8,0.4-1.5,0.4-1.5
			c0-0.1,0-0.1,0-0.2C33.8,22.1,32.9,22.1,32.7,22.1z"/>
		<path class="st9" d="M34.6,20.2c0.1-0.3-0.1-0.4-0.1-0.4c-0.2,0-0.3,0.1-0.3,0.1c0-0.3-0.2-0.3-0.2-0.3c-0.2,0-0.3,0.2-0.3,0.2
			c0-0.3-0.2-0.3-0.2-0.3c-0.2,0-0.3,0.2-0.3,0.2c0.1,0.5-0.5,1.3-0.5,1.3c-0.3-0.2-0.3-0.5-0.3-0.5c0-0.3-0.1-0.4-0.1-0.4
			c-0.6,0.4,0,1.6,0,1.6c0.1,0.1,0.1,0.2,0.1,0.4c0.2,0,1.1,0,1.4,0c0.1-0.5,0.5-1,0.5-1c0.3-0.4,0.4-0.6,0.4-0.6
			C35,20,34.6,20.2,34.6,20.2z"/>
		<path class="st8" d="M30.7,27c0,0,0.5,0.4,1,0.2c0,0,0.6-0.1,0.8,0.2c0,0,1,0.1,0.6,0.3c0,0,0.2,0.3-0.1,0.3c0,0,0,0.3-0.2,0.3
			c0,0,0,0.3-0.2,0.3c0,0,0.2,0.2-0.1,0.2c0,0-0.5,0.2-1.3-0.2l-0.6-0.3L30.7,27z"/>
		<path class="st17" d="M36.4,24.2l2-2.2c0.4-0.5-0.1-1.1-0.1-1.1l-2-2.3c-0.6-0.7-1.1-0.8-1.1-0.8l-2.3,0c0.3-0.8,0.2-2.6,0.2-2.6
			c-0.1-2.4-2.1-2-2.1-2c-2.4,0.4-1.9,2.5-1.9,2.5c0,1.1,1.6,2.7,1.6,2.7l-2.4,0.9c-1.3,0.8-0.9,4.5-0.9,4.5
			C27,25.3,28.2,26,28.2,26c0,0.5,0.6,1.2,0.6,1.2l-0.9,0.3l-0.1,0.8c-0.3,0.1-2.4,2.7-2.4,2.7c-0.1,0.2-0.2,0.3-0.3,0.5
			c-1.2,2,0.2,2.5,0.2,2.5c1.3,0.3,2.5-1.1,2.5-1.1l0.1-0.1l1.8-1.5c0.3-0.2,0.5-0.4,0.7-0.6c0-0.1-0.1-0.3-0.1-0.4
			c0,0-0.7-0.9,0-1.1c0,0,0.4-2.4,0.6-2.6l0.5-0.1c0,0-0.1-2.3,1.2-3.2c0,0,0.3-1.2,0-1.6c0,0-0.6-1.2,0-1.6c0,0,0.1,0,0.1,0.4
			c0,0,0,0.3,0.3,0.5c0,0,0.5-0.8,0.5-1.3c0,0,0-0.2,0.3-0.2c0,0,0.2,0,0.2,0.3c0,0,0.1-0.2,0.3-0.2c0,0,0.2,0,0.2,0.3
			c0,0,0.1-0.1,0.3-0.1c0,0,0.2,0.1,0.1,0.4c0,0,0.4-0.1,0.3,0.2c0,0,0,0.2-0.4,0.6c0,0-0.5,0.7-0.5,1.2c0,0-0.4,0.8-0.4,1.6
			c0,0-0.1,2.1-0.6,3l0.4,0.2c0,0-0.3,1.4-0.5,1.8c0,0,0.2,0.7,0.1,1.3l0.3,0c-0.5,0.9,1,2,1,2c-0.2,0.1-0.2,2.5-0.2,2.5
			c0,0.7,1.3,1.1,1.3,1.1c0.2,0.3,0.3,1.8,0.3,1.8c0.1,0.4-0.3,0.9-0.5,1.3c-0.2,0.4,0.5,0.8,0.5,0.8c0.1,0.5,0.8,1,0.8,1
			c0.3,0.2,0.4-0.2,0.4-0.2c0.2,0.1,0.3-0.2,0.3-0.2c0.2,0.1,0.2-0.2,0.2-0.2c0.2,0.1,0.2-0.1,0.2-0.1c0.3,0-0.1-0.4-0.1-0.4
			c-0.6-0.5-0.7-1.3-0.7-1.3c-0.3-1,0.1-2.4,0.1-2.4c0.6,0,0.8-0.4,0.8-0.4c0.2-0.6-0.2-2.2-0.2-2.2c-0.3-0.8,0.2-1.5,0.2-1.5
			c0.9-1.7-0.4-2.4-0.4-2.4c0.1-0.5-0.2-1.2-0.2-1.2c0.2-0.5-0.2-1.2-0.2-1.2c0.5-0.4-1.3-1.1-1.3-1.1c0.1-0.5-0.2-1-0.2-1
			c0-0.3,0-0.9,0-0.9C35.8,24.1,36.4,24.2,36.4,24.2z"/>
		<path class="st9" d="M31.4,26.4l-0.5,0.1c-0.1,0.2-0.6,2.6-0.6,2.6c-0.7,0.1,0,1.1,0,1.1c0,0.1,0,0.3,0.1,0.4c0,0.1,0,0.2,0.1,0.2
			c0.5,0.5-0.9,1.5-0.9,1.5c-0.3,0.1-0.8,0.8-0.8,0.8c-0.1,0-0.4-0.2-0.8-0.4l-0.1,0.1c0,0-1.3,1.4-2.5,1.1c0,0-1.4-0.5-0.2-2.5
			c0,0,0,0,0,0c-1.3-4.8-4.5-7-4.5-7c-1.5-0.8-1.6-1.4-1.6-1.4c-0.1-0.4-0.5-0.1-0.5-0.1c-0.9-0.7-1.8-2.2-1.8-2.2
			c-0.4-0.9-1.4-1.9-1.4-1.9c0-0.8-0.6-0.8-0.6-0.8c0-0.3-0.2-0.2-0.2-0.2c-0.7,0.3-0.1,1-0.1,1c-0.3,1,0.3,1.2,0.3,1.2
			c0.3,0.3,0.2,0.4,0.2,0.4c-1.2,1.9,0.2,1.7,0.2,1.7c2-0.2,1.9,2.1,1.9,2.1c-0.7,0.5-1.4,1.8-1.4,1.8c0.3,0.1,1.6,0.4,1.6,0.4
			c0.2,0.5,1.9,2,1.9,2c0,0.6,1.9,2.9,1.9,2.9c0.3,0.8,0.2,2.1,0.2,2.1c-0.4,0-0.7,0.2-0.7,0.2l-0.6,1.3c-2.9,0.1-3.3,0.6-3.3,0.6
			c-0.2-0.1-1.4-0.1-1.4-0.1c-0.5-0.7-0.9-0.7-0.9-0.7c-0.6,0-0.1,0.6-0.1,0.6c-0.1,0.2,0,0.4,0,0.4c-2.5,0.8-1.4,2.3-1.4,2.3
			c0.7,1.2,2.9,0.6,2.9,0.6c0.7,0.4,4.1,0.4,4.1,0.4c0.2,1.2,3.9,1.2,3.9,1.2c0.9,0.5,2,0,2,0c1-0.4,2.1,0,2.1,0
			c0.2,0.1,1.2,0.1,1.2,0.1c1,0.1,1.4-0.9,1.4-0.9c0.9-0.1,1.1-0.7,1.1-0.7c1.7-0.2,2.3-1.7,2.3-1.7c0.6-1.5-0.4-2.5-0.4-2.5
			c0.2-0.8-0.2-1.6-0.2-1.6c0.4-0.9-0.4-2.1-0.4-2.1c0.1-0.1,0.2-0.3,0.2-0.5c0.1-0.6-0.1-1.3-0.1-1.3c0.2-0.4,0.5-1.8,0.5-1.8
			L33,26.8c0.5-1,0.6-3,0.6-3c0-0.1,0-0.1,0-0.2c-0.9,0-1.6,0.4-1.9,0.6C31.3,25.2,31.4,26.4,31.4,26.4z"/>
		<path class="st17" d="M32.6,22c0.1,0.5-0.1,1.3-0.1,1.3c-0.3,0.3-0.6,0.6-0.7,1c0.2-0.2,1-0.6,1.9-0.6c0-0.8,0.4-1.5,0.4-1.5
			c0-0.1,0-0.1,0-0.2C33.8,22,32.9,22,32.6,22z"/>
		<path class="st17" d="M30.6,26.9c0,0,0.5,0.4,1,0.2c0,0,0.5-0.1,0.7,0.2c0,0,1,0.1,0.6,0.3c0,0,0.2,0.3-0.1,0.3c0,0,0,0.3-0.2,0.3
			c0,0,0,0.3-0.2,0.3c0,0,0.2,0.2-0.1,0.2c0,0-0.4,0.2-1.3-0.2l-0.6-0.3L30.6,26.9z"/>
	</g>
</g>
</svg>
