<?xml version="1.0" encoding="utf-8"?>
<!-- Generator: Adobe Illustrator 23.0.0, SVG Export Plug-In . SVG Version: 6.00 Build 0)  -->
<svg version="1.1" id="Layer_1" xmlns="http://www.w3.org/2000/svg" xmlns:xlink="http://www.w3.org/1999/xlink" x="0px" y="0px"
	 viewBox="0 0 1125.1 800.9" style="enable-background:new 0 0 1125.1 800.9;" xml:space="preserve">
<style type="text/css">
	.st0{opacity:0.1;fill:#1C3ED3;enable-background:new    ;}
	.st1{fill:#DEA3A2;}
	.st2{opacity:0.1;enable-background:new    ;}
	.st3{fill:none;}
	.st4{fill:#66B6FF;}
	.st5{fill:#3C3C3C;}
</style>
<title>hang out</title>
<path class="st0" d="M26.5,423.8C44,496,81.2,558.5,140,588.7c122.2,62.9,397.8,30.5,603.4-6.8c106.4-19.3,199.9-72.4,267.8-147.2
	L26.5,423.8z"/>
<path class="st0" d="M1105,83.9H992.1c-5.2,0.2-9.5-3.9-9.7-9.1c-0.2-5.2,3.9-9.5,9.1-9.7c0.2,0,0.4,0,0.6,0h19.5
	c-5.2,0.2-9.5-3.9-9.7-9.1c-0.2-5.2,3.9-9.5,9.1-9.7c0.2,0,0.4,0,0.6,0h-13.9c-5.2,0.2-9.5-3.9-9.7-9.1c-0.2-5.2,3.9-9.5,9.1-9.7
	c0.2,0,0.4,0,0.6,0h58.9c-13.1-5.8-28.3-10-46-12.2C850-4.3,792.7,8.8,772.4,22.3c-25,16.6-52.8,28.9-82.5,34.8
	c-99,19.7-284.3,43.3-452.3-7.6C154.1,24.2,92.1,67,54.9,138.3h1069.7c-1.4-20.8-5.6-39.9-13.3-56.7
	C1109.5,83.1,1107.3,84,1105,83.9z"/>
<path class="st0" d="M702.8,311.7l-1.5-0.1l-15.4-0.9l-147.2-8.3l-15.9-0.9l-234.3-13.2l-65.7-3.7l-10.4-0.6l-9.2-0.5L16.9,273.1
	c-4.3,42-2.9,84.4,4.4,126l156.8,5.5l12.4,0.5l2.2,0.1l74.4,2.6l4,0.1l8.6,0.3l75,2.6l10.3,0.4l35.9,1.3h0.7l5.3,0.2l18,0.6l0,0
	l15.8,0.5l30,1.1h0.6l2.7,0.1l2.8,0.1h0.6l47.8,1.7l13.4,0.5h0.6l6.5,0.2l0,0h1.2h0.5l5.7,0.2l17.3,0.6l0,0l6.5,0.2l8.3,0.3h0.3
	l11.5,0.4l33.2,1.2l9.1,0.3h1l44.2,1.6l25.7,0.9l32,1.2l5.1,0.2l8.3,0.3l30.1,1.1l226.7,8c27.5-30.3,50.6-64.3,68.8-100.9
	L702.8,311.7z M276.4,381.7c-2.4,0-4.7-0.8-6.5-2.4l0,0c-0.8-0.7-1.5-1.6-2.1-2.5c-0.8-1.4-1.2-2.9-1.2-4.5c0-1.8,0.6-3.6,1.6-5.1
	l0,0c0.3-0.5,0.7-0.9,1.1-1.3c1.9-1.9,4.4-2.9,7.1-2.9h19.5c-5.2,0.2-9.5-3.9-9.7-9.1s3.9-9.5,9.1-9.7c0.2,0,0.4,0,0.6,0H282
	c-0.3,0-0.6,0-0.9,0c-5.2-0.4-9-4.9-8.6-10.1c0.4-4.9,4.6-8.7,9.5-8.6h112.8c5.2-0.2,9.5,3.9,9.7,9.1s-3.9,9.5-9.1,9.7
	c-0.2,0-0.4,0-0.6,0h13.9c5.2-0.2,9.5,3.9,9.7,9.1s-3.9,9.5-9.1,9.7c-0.2,0-0.4,0-0.6,0h-19.5c5.2-0.2,9.5,3.9,9.7,9.1
	s-3.9,9.5-9.1,9.7c-0.2,0-0.4,0-0.6,0L276.4,381.7z"/>
<path class="st0" d="M1124.6,139l-778.4,18.2l-85.5,2l-217.8,5.1C29.8,196.8,21.1,233.6,17,271.7h1088.6
	c7.1-22.3,12.3-45.2,15.7-68.4C1124.6,180.8,1125.9,159.2,1124.6,139z M236.6,221.9h-19.5c5.3-0.1,9.6,4.1,9.8,9.4
	c0,0.2,0,0.4,0,0.6c-0.2,3-1.8,5.6-4.3,7.2c-1.6,1-3.5,1.6-5.4,1.6H104.3c-5.2,0.2-9.5-3.9-9.7-9.1c-0.2-5.2,3.9-9.5,9.1-9.7
	c0.2,0,0.4,0,0.6,0h19.5c-5.2,0.2-9.5-3.9-9.7-9.1c-0.2-5.2,3.9-9.5,9.1-9.7c0.2,0,0.4,0,0.6,0h-13.9c-5.2,0.2-9.5-3.9-9.7-9.1
	c-0.2-5.2,3.9-9.5,9.1-9.7c0.2,0,0.4,0,0.6,0h112.8c5.2-0.2,9.5,3.9,9.7,9.1c0.2,5.2-3.9,9.5-9.1,9.7c-0.2,0-0.4,0-0.6,0h13.9
	c1.6,0,3.2,0.4,4.6,1.1c3.1,1.6,5.1,4.8,5.1,8.2C246.3,217.8,241.9,222,236.6,221.9L236.6,221.9z"/>
<path class="st1" d="M594.3,88l17.4,3.7C606,90,600.1,88.8,594.3,88z"/>
<path class="st2" d="M834.7,202.7c2.1,0.9,10.9,23.2,9.2,29.8S834.7,202.7,834.7,202.7z"/>
<path class="st2" d="M678.7,71.2c2.7,3.1,3.6,7.3,3.7,11.4s-0.4,8.1-0.1,12.2c0.3,4.3,2.3,9.3,6.5,9.9L678.7,71.2z"/>
<path class="st3" d="M891.2,49.7c-3.2,1.7-6.2,3.7-8.9,6.1c-2.7,2.4-4.5,5.7-5.2,9.2c-0.2,1.5-0.1,3.1-0.4,4.6c-0.6,2-1.6,3.9-3,5.6
	c-2.3,2.9-4.8,5.7-7.5,8.3"/>
<path class="st2" d="M865.4,152.9c2.2-1.9,4.6-3.5,7.2-5c2.3-1.4,4.8-2.5,7.3-3.2c3.9-1,8.1-0.9,12.1-1.3s8.3-1.6,11.1-4.6
	L865.4,152.9z"/>
<path class="st2" d="M1026.1,103c-4.8,0.1-9.8,0.3-14.1,2.5c-2.2,1.1-4.1,2.7-6.2,3.9c-2.8,1.5-5.9,2.3-9.1,2.4L1026.1,103z"/>
<path class="st2" d="M959.4,122.8c1-0.8,2.6-0.2,3.5,0.8s1.3,2.3,2.2,3.2c1.8,1.9,4.6,2.1,7.2,2.2L959.4,122.8z"/>
<path class="st2" d="M931.9,20.7l-4.6,2.4c-4.7,2.5-9.5,5-13.6,8.3L931.9,20.7z"/>
<path class="st2" d="M879.1,65.9c-3-0.7-5.7,2.5-6.2,5.6s0.1,6.3-0.8,9.3c-0.8,2.7-2.6,4.8-4.5,6.8L879.1,65.9z"/>
<path class="st2" d="M827.7,71.5c-2.8,8.2,3.1,17.3,1.4,25.8c-0.5,2.6-1.7,5-2.3,7.6c-1.6,6.8,1.2,14,5.6,19.4L827.7,71.5z"/>
<g>
	<path class="st4" d="M470,278.5l-18.3-12.2c0,0-24.3,14.7-40.7,18.1c0,0-20.2,7-19.7,16.6c0,0-1.6,11.1-12,1.3c0,0-5.5-12,9.6-16
		c0,0,0.8-15.4,15.6-20c0,0,19.5-5.7,19.8-34.9c0,0-1.2-11.1,16.1-13.5c0,0,14.5-2.9,20.2,12.4c0,0,4.6,14,14.5,14.8l13.7,4l8.1-9.4
		c0,0,48.5,23.5,89.3,13.5c0,0,99.5-21.4,117.4,4.5c0,0,17.1-14.3,27.9-11.7c0,0,3.5,5.2,5.1,38.3c0,0,11.5,24.8,8.7,41.4
		c0,0,9.8,6,9.8,15.9c0,0,54.9,39.3,47.6,107.3c0,0,36.8,12.4,40.5,45.9c0,0,6.9,45.2-61.2,53.5l-6.3,14c0,0-10.7,1.3-13.7,0
		c0,0-19.4,30.5-19.7,47.1l-2.2,11.9c0,0-5.5,8.5-18.9,10.9c0,0,0,21.6-10,2.4c0,0-6.7-1.9-4.3-6c0,0-4.6-0.8-2.2-5.4
		c0,0-6.5-3.2-0.9-8.8c0,0-5.6-4.6-0.4-7l9.8-6c0,0,1.9-15.5,10.4-19.7c8.5-4.1,0.8-1.3,0.8-1.3s10.5-26.5,10.1-32.9
		c0,0-0.3-39.6,21.6-53.3c0,0-48.3-11.1-57-14.9L581.5,580.3c0,0-5.1-34.8,10.6-48l4.4-21l-9.8,0.7c0,0,4.4-51.4,19.3-66.3
		c0,0,17.7-12.9,36.1-23.5c0,0,20.4-43.5-7.7-48.3c0,0-8.4-0.3-12.4-6.2c0,0-181.9,7.9-192.1,4.1c0,0-7.3-2.1-5.5-12.1l-27.7-0.3
		c0,0-33.5,12.1-37.6,48.3c0,0,2.2,11-5.8,10.4c0,0-4,3.4-9.8,1c0,0-3.3,4-7.5,0.9c0,0-2,4.1-6.4,0.3c0,0-4.2,2.9-4.6-1.7
		c0,0,1.5-40.4,19.7-58.8c0,0,8.9-14,2.4-24.2c0,0-9.5-20.2,23.3-16.9c0,0,6.4,0.9,12.8,4.5c0,0,20,7.1,37-2.1c0,0-7.8-20,17.9-20.5
		l42.5-2.4C480.6,298.2,461.3,294.4,470,278.5z"/>
	<path class="st5" d="M195.5,658.7c0,0-8.7-1.3-6.8-8.3c0,0,1.4-4.9,9.3-2.8c0,0,37.2,5.4,89.4-44c0,0-14.2-15.3,1.9-18.4
		c0,0,53.6-52.8,106.1-53.6c0,0,29.3,1,46.5,9.3c0,0,51.7-112.8,42.1-121.9h24.3c0,0,12.4-36.1,6.6-43c0,0,0,0-1.9-4.3l81.1-2.9
		c0,0-1.5,14-34,20.2c0,0-13.1,4.5-10.9,30.7c0,0,8.8-1.7,1.5,29c0,0-11.3,68.7-20.8,84.9c0,0-2.2,20.7,2.2,27.6
		c0,0,13.9-6.9,17.9,2.8c0,0,29.9-4.5,47-1c0,0,2.6-19.7,9.1-24.8c0,0,12.4-21.4,12-25.2c0,0,4.3-3.1,10.6-3.5
		c0,0,4.5-12.4,12.9-18.9c0,0-2-16,14.4-23.5c0,0,3.4,7.8,2.1,15.7l9.7,1.9c0,0,14.6-14.5,26.6-16.2l4.7,3.5c0,0-6,28.8-29,26.9
		L659.5,522l6.6,3.6c0,0-19.7,36.7-18.6,42.4l11.8,4.7c0,0,28.7-50.7,34.2-54.1h13.1c0,0,4.9-17.6,12.8-21.7c0,0-10.3-9.7-4.9-21.5
		c0,0,13-25.2,18.6-17.9c0,0,7.9-6.6,9-1c0,0,8.6-7,11.1,0.5c0,0,9.3-5,10.5,2.7c0,0,3.3,13.7-3.8,19.4c0,0-3.4,5.3,3.4,7.5
		c0,0,7.2,1.7,2.3,7.1c0,0-3.8,3.1-12.7,8c0,0-10.8,5.6-13.9,21.4l3.3,0.3c0,0-11.1,14.9-11.9,39.5c0,0-13.4,78.9-34.5,95.8
		c0,0-20.8,20.7-53.9,18.4c0,0-85.8-0.5-93.8-12.9c0,0-8.5,2.1-23,1.8c0,0-74.6,17.9-87.5-14.5l10.4-1c0,0-40.7-14.8-44.8-32.3
		c0,0-18.6,0.8-22.7-3.4c0,0-33.1,10.9-53.3,23.3c0,0-16.1-2.9-17.5-6.5l-6.6,6l-4.4,19.9c0,0-0.3,12.7-20,10.9
		c0,0-13.4-1.5-22.9,1.4c0,0-33.5,12.8-32.8,1.9c0,0-12,5.7-11.7-1.9c0,0-11.3,2.9-8.4-5.5C203.2,664.1,193.3,667.9,195.5,658.7z"/>
</g>
</svg>
