<?xml version="1.0" encoding="utf-8"?>
<!-- Generator: Adobe Illustrator 23.0.0, SVG Export Plug-In . SVG Version: 6.00 Build 0)  -->
<svg version="1.1" id="Layer_1" xmlns="http://www.w3.org/2000/svg" xmlns:xlink="http://www.w3.org/1999/xlink" x="0px" y="0px"
	 viewBox="0 0 941.5 824.8" style="enable-background:new 0 0 941.5 824.8;" xml:space="preserve">
<style type="text/css">
	.st0{opacity:0.1;fill:#1C3ED3;enable-background:new    ;}
	.st1{fill:#E6E8EC;}
	.st2{fill:none;stroke:#00FFFF;stroke-miterlimit:10;}
	.st3{opacity:0.1;enable-background:new    ;}
	.st4{display:none;}
	.st5{display:inline;fill:none;}
	.st6{display:inline;fill:#66B6FF;}
	.st7{display:inline;fill:#3C3C3C;}
	.st8{fill:#3A3A3A;}
	.st9{enable-background:new    ;}
	.st10{fill:#2699FF;}
	.st11{fill:none;}
	.st12{fill:#141414;}
	.st13{fill:#3C3C3C;}
	.st14{fill:#66C6FF;}
</style>
<title>businesswoman</title>
<ellipse transform="matrix(0.1368 -0.9906 0.9906 0.1368 -448.9175 1006.185)" class="st0" cx="352.9" cy="760.7" rx="42.4" ry="356.1"/>
<path class="st0" d="M20.4,568.9c6.4,15.5,14.8,30.3,26.6,41.6c14.3,13.8,32.1,21.4,51.2,25c5.6,1,11.3,1.8,17,2.2
	c15.1,1.2,30.5,0.4,45.3-1.2c36.3-4,72-11.6,106.7-22.8c5.7-1.8,11.4-3.8,17-5.8c8.5-3,16.9-6.3,25.3-9.8
	c34-14.2,69.1-32.3,105.3-26.7c17.5,2.7,34,11,51.6,13.5c12.3,1.6,24.9,0.7,36.8-2.6c5.8-1.6,11.5-3.5,17-5.9
	c12.4-5.4,24.3-12.1,35.3-20c26.5-18.5,50.3-41.5,78.2-57.5c30.8-17.7,64.8-26.1,99.5-32.4c5.7-1,11.3-2,17-2.9
	c16-2.6,32.1-5.1,48-8c15.3-2.8,30.8-6.3,44.1-14.8c9.5-6,17.5-14.4,24.8-23.3c13.5-16.4,25.1-34.2,34.5-53.2c0.5-1,1-2,1.5-3
	c14.7-30.1,24.6-63,30.6-97c0.2-1,0.3-2,0.5-3c5.7-33.3,7.8-67.8,7.2-102l-0.1-3c-0.4-16.9-1.4-33.7-3-50.3
	c-1.1-11.7-2.6-23.8-8.7-33.6s-15.9-16.1-25.7-21.3C860.6,28,819.1,21.6,772.5,32.8c-7.5,1.8-14.9,3.7-22.4,5.7
	c-5.7,1.5-11.3,3.1-17,4.7C694,54.1,655,65.7,614.6,69.1c-3.9,0.3-7.8,0.6-11.7,0.8c-7.7,0.4-15.5,0.4-23.2,0.2
	c-19.9-0.6-39.8-2.6-59.4-6.1c-5.7-1-11.3-2.1-17-3.3c-24.4-5.1-48.6-11.9-72.4-19.4c-4.9-1.5-9.7-3.1-14.6-4.7
	c-10.9-3.6-21.8-7.2-32.8-10.8C350.8,15.2,318,5.5,284.2,1.6c-2.9-0.3-5.8-0.6-8.7-0.9c-2.8-0.2-5.5-0.4-8.3-0.6
	c-52.5-2.8-105.5,9.8-152,35.7c-5.8,3.2-11.4,6.6-17,10.2C90.5,51,83,56.4,75.8,62.2C60.9,74.4,47,87.9,36.4,104.1
	c-10.3,15.8-17,33.5-20.9,52.2c-0.2,1-0.4,2-0.6,3c-5.6,30.1-3.9,62.4,2.4,92.5c0.7,3.2,1.4,6.3,2.1,9.5c0.2,1,0.5,2,0.7,3
	c6.8,28.5,15.6,56.9,13.3,86.1c-0.3,3.7-0.8,7.3-1.4,10.9c-0.2,1-0.3,2-0.5,3C27.2,388,17.1,410.6,11,434.2
	C-0.4,478.9,2.9,526.1,20.4,568.9z"/>
<path class="st0" d="M98.2,261.3H19.6c0.2,1,0.5,2,0.7,3h77.9v97h-66c-0.2,1-0.3,2-0.5,3h66.5v271.2c5.6,1,11.3,1.8,17,2.2V364.3
	h152v249.4c5.7-1.8,11.4-3.8,17-5.8V364.3h219v217.9c5.8-1.6,11.5-3.5,17-5.9v-212h213v102.1c5.7-1,11.3-2,17-2.9v-99.2h151.5
	c0.5-1,1-2,1.5-3h-153v-97h183.6c0.2-1,0.3-2,0.5-3H750.2v-102h191.2l-0.1-3H750.2V38.5c-5.7,1.5-11.3,3.1-17,4.7v113.1h-208
	l-0.5-0.6l78.2-85.8c-7.7,0.4-15.5,0.4-23.2,0.2l-59.4,65.2V64c-5.7-1-11.3-2.1-17-3.3V132l-86.9-95.4c-10.9-3.6-21.8-7.2-32.8-10.8
	l118.2,129.7l-0.5,0.6h-217V1.8c-2.9-0.3-5.8-0.6-8.7-0.9c-2.8-0.2-5.5-0.4-8.3-0.6v155.9h-152V36.1c-5.8,3.2-11.4,6.6-17,10.2
	v109.9H15.6c-0.2,1-0.4,2-0.6,3h83.2V261.3z M267.2,159.3v102h-152v-102L267.2,159.3L267.2,159.3z M284.2,159.3h219v102h-219V159.3z
	 M733.2,261.3h-213V162l3-2.7h210V261.3z M520.2,361.3v-97h213v97H520.2z M284.2,361.3v-97h219v97H284.2z M115.2,264.3h152v97h-152
	L115.2,264.3L115.2,264.3z"/>
<path class="st0" d="M188.2,89h1.3c-0.9-0.5-1.5-1.5-1.6-2.6l0,0c0-2.1,2.5-3.8,5.6-3.8H233c3.1,0,5.6,1.7,5.6,3.8l0,0
	c0,2.1-2.5,3.8-5.6,3.8h-1.3c0.9,0.6,1.5,1.5,1.6,2.6c0,1.8-1.8,3.2-4.3,3.6h11.4c3.1,0,5.6,1.7,5.6,3.8s-2.5,3.8-5.6,3.8H201
	c-3.1,0-5.6-1.7-5.6-3.8c0-1.8,1.8-3.2,4.3-3.6h-11.3c-3.1,0-5.6-1.7-5.6-3.8S185.1,89,188.2,89z"/>
<path class="st0" d="M615.4,124.8h1.3c-0.9-0.6-1.5-1.5-1.6-2.6l0,0c0-2.1,2.5-3.8,5.6-3.8h39.4c3.1,0,5.6,1.7,5.6,3.8l0,0
	c0,2.1-2.5,3.8-5.6,3.8h-1.3c0.9,0.6,1.5,1.5,1.6,2.6c0,1.8-1.8,3.2-4.3,3.6h11.3c3.1,0,5.6,1.7,5.6,3.8s-2.5,3.8-5.6,3.8H628
	c-3.1,0-5.6-1.7-5.6-3.8c0-1.8,1.8-3.2,4.3-3.6h-11.3c-3.1,0-5.6-1.7-5.6-3.8S612.3,124.8,615.4,124.8z"/>
<path class="st0" d="M127.8,277.9h1.3c-0.9-0.5-1.5-1.5-1.6-2.6l0,0c0-2.1,2.5-3.8,5.6-3.8h39.4c3.1,0,5.6,1.7,5.6,3.8l0,0
	c0,2.1-2.5,3.8-5.6,3.8h-1.3c0.9,0.5,1.5,1.5,1.6,2.6c0,1.8-1.8,3.2-4.3,3.6h11.3c3.1,0,5.6,1.7,5.6,3.8s-2.5,3.8-5.6,3.8h-39.4
	c-3.1,0-5.6-1.7-5.6-3.8c0-1.8,1.8-3.2,4.3-3.6h-11.4c-3.1,0-5.6-1.7-5.6-3.8S124.8,277.9,127.8,277.9z"/>
<path class="st1" d="M431.4,182.2l-1.7,1.2c-0.1,0.1-0.3,0.1-0.4-0.1l0,0c-0.1-0.1-0.1-0.3,0.1-0.4l1.7-1.2c0.1-0.1,0.3-0.1,0.4,0.1
	l0,0C431.6,181.9,431.6,182.1,431.4,182.2z"/>
<circle class="st1" cx="428.8" cy="183.7" r="0.3"/>
<path class="st2" d="M384.4,223.4l0.1-0.1L384.4,223.4z"/>
<path class="st3" d="M514.4,289.7c-0.2,0.5-5.2,10.5-1.8,11.6S514.4,289.7,514.4,289.7z"/>
<path class="st3" d="M499.4,275.8c0,0-7.6,2.7-8.9,4S499.4,275.8,499.4,275.8z"/>
<path class="st3" d="M525,268.4c-3.5-0.2-16.1-3.5-16.6-2.4S525,268.4,525,268.4z"/>
<g class="st4">
	<path class="st5" d="M407.9,569.2c0,0,28.1-19.3,18.2-31c-0.5-0.5-1-2-1.4-3.8c-3.7,3-8.7,7.1-14.4,12L373,578.6
		c8.5,3.9,15,6.9,17.1,7.8C390.1,586.4,402.4,571.8,407.9,569.2z"/>
	<path class="st6" d="M552,398l42.7-47.6c8.3-10.5-2.8-24-2.8-24l-41.6-47.9c-13.1-15.4-22.6-16.1-22.6-16.1l-47.9-0.4
		c5.9-16.9,4-55.4,4-55.4c-2-51.7-43.9-43.1-43.9-43.1c-51.8,7.9-39.7,52.2-39.7,52.2c0,22.8,33.5,56.8,33.5,56.8l-50.8,18.3
		c-26.7,16-19,95.8-19,95.8c-11.3,35.4,16,48.3,16,48.3c0.6,10.1,12.2,25.3,12.2,25.3l-19.6,5.6l-2.7,17.4
		c-5.6,2.8-51.1,57.3-51.1,57.3c-2.6,3.5-4.8,6.8-6.7,9.9c-25.9,42.2,4.6,53.6,4.6,53.6c26.4,6.2,53.1-22.8,53.1-22.8l3-2.6
		l37.3-32.3c5.7-4.8,10.7-9,14.4-12c-0.7-3-1.4-6.9-1.6-9.4c0,0-15.7-20,0.2-22.4c0,0,9-50.7,12-55.4l10.4-2c0,0-1.2-49.2,24.9-68.6
		c0,0,5.9-26.1,0-33.7c0,0-12.3-26.3-0.6-34.1c0,0,1.5,0.7,1.3,7.4c0,0-0.4,7,5.5,11.1c0,0,11-16.2,9.6-26.6c0,0,0.4-4.5,5.3-4.5
		c0,0,4.3,0.3,4,6.5c0,0,1.8-4.1,6.1-3.8c0,0,3.6-0.6,3.3,5.5c0,0,2.5-2.8,6.5-2c0,0,4.9,1.1,2.2,8.3c0,0,7.7-2.8,5.5,5.1
		c0,0-1,4.8-7.4,13.5c0,0-9.5,15-9.9,25.1c0,0-9.1,17-7.9,34.6c0,0-1.6,43.5-12.7,64.4l8.9,3.9c0,0-5.3,30.3-10.5,38.6
		c0,0,3.7,15,1.4,27.9l5.4-0.6c-10.9,18.2,22,42,22,42c-3.6,1.5-4,52.4-4,52.4c0,14,26.7,22.8,26.7,22.8c3.6,5.8,5.9,37.5,5.9,37.5
		c2,7.9-5.5,18.2-9.9,26.6c-4.4,8.4,11.3,16.5,11.3,16.5c3,9.9,16,21.5,16,21.5c7.1,3.4,7.9-3.7,7.9-3.7c4,1.6,5.5-3.6,5.5-3.6
		c5,2.2,4.4-4.7,4.4-4.7c3.4,1.3,4-2.8,4-2.8c7.1,0-1.1-8.7-1.1-8.7c-11.9-10.1-13.9-28.1-13.9-28.1c-5.6-20.2,2.7-50.3,2.7-50.3
		c11.9-0.8,16.3-9,16.3-9c4.4-12.1-3.3-47.5-3.3-47.5c-6.2-17.7,3.6-32.3,3.6-32.3c18.1-35.1-9.4-51-9.4-51
		c1.6-11.6-4.4-26.2-4.4-26.2c3.8-11.6-4.9-24.5-4.9-24.5c10.5-9-27.1-23.6-27.1-23.6c2.4-11.1-4.2-21.7-4.2-21.7
		c1-6.8,1-18.5,1-18.5C539.3,396.1,552,398,552,398z"/>
	<path class="st7" d="M445.7,445.2l-10.4,2c-3,4.8-12,55.4-12,55.4c-15.9,2.3-0.2,22.4-0.2,22.4c0.2,2.4,0.8,6.4,1.6,9.4
		c0.5,1.8,1,3.3,1.4,3.8c9.9,11.7-18.2,31-18.2,31c-5.5,2.6-17.8,17.2-17.8,17.2c-2.1-0.9-8.7-3.9-17.1-7.8l-3,2.6
		c0,0-26.7,28.9-53.1,22.8c0,0-30.6-11.5-4.6-53.6c-0.3-0.1-0.5-0.2-0.5-0.2c-27.7-102-94.8-147.7-94.8-147.7
		c-32.7-18-33.6-28.9-33.6-28.9c-2.6-9-10.1-2.8-10.1-2.8C155,356.4,136,323.4,136,323.4c-7.5-18.4-29.3-41-29.3-41
		c-0.6-16.3-11.9-17.6-11.9-17.6c-0.6-7.3-4.5-4.7-4.5-4.7c-15.6,6.6-2.6,21.9-2.6,21.9c-7.1,20.6,5.3,26.4,5.3,26.4
		c5.9,5.6,3.8,9.4,3.8,9.4c-26.1,39.7,4.8,36.7,4.8,36.7c42.7-4.9,39.2,43.5,39.2,43.5c-14.6,9.7-30.1,38.6-30.1,38.6
		c5.5,2.6,33.2,7.7,33.2,7.7c3.4,11.1,40.8,42.5,40.8,42.5c-0.8,13.1,40.2,61.1,40.2,61.1c6.5,16.7,4.9,43.5,4.9,43.5
		c-8.3,0.7-14.1,4.9-14.1,4.9L202,622.7c-61.5,3-68.9,12-68.9,12c-3.8-1.3-29.5-1.1-29.5-1.1c-10.1-14.8-19.6-14-19.6-14
		c-13.5-0.4-2.4,12.4-2.4,12.4c-2.6,4.3-0.4,8.2-0.4,8.2c-52.8,18-29.4,48.3-29.4,48.3c14.2,25.6,62,12.6,62,12.6
		c15.4,8.2,87.5,7.6,87.5,7.6c3.4,24.9,81.9,25.5,81.9,25.5c18.2,11.2,43.1-0.9,43.1-0.9c20.8-7.7,44.1-0.8,44.1-0.8
		c4.4,1.9,25.8,2.9,25.8,2.9c20.6,1.7,29.5-18.4,29.5-18.4c18-2.9,23.7-15.6,23.7-15.6c36.5-5.1,49-35.4,49-35.4
		c12.2-31.5-8.9-52.1-8.9-52.1c4.4-17-4.4-33.9-4.4-33.9c7.5-18.7-8.1-45.3-8.1-45.3c2.1-3.1,3.4-6.9,4.1-10.9
		c2.3-12.9-1.4-27.9-1.4-27.9c5.1-8.2,10.5-38.6,10.5-38.6l-8.9-3.9c11.1-21,12.7-64.4,12.7-64.4c-0.1-1.2-0.1-2.5-0.1-3.7
		c-19.1,0.4-34,8.8-39.3,12.2C445.1,419.1,445.7,445.2,445.7,445.2z"/>
	<path class="st6" d="M473,350.3c1.2,10.6-2.4,26.4-2.4,26.4c-7.1,5.3-12.2,12.8-15.8,20.9c5.2-3.4,20.1-11.8,39.3-12.2
		c0.2-16.2,8-30.9,8-30.9c0.1-1.3,0.2-2.6,0.5-3.9C496.8,351.2,478.1,350.5,473,350.3z"/>
	<path class="st7" d="M514,310.8c2.7-7.2-2.2-8.3-2.2-8.3c-4-0.8-6.5,2-6.5,2c0.3-6-3.3-5.5-3.3-5.5c-4.3-0.3-6.1,3.8-6.1,3.8
		c0.3-6.2-4-6.5-4-6.5c-4.9,0-5.3,4.5-5.3,4.5c1.3,10.4-9.6,26.6-9.6,26.6c-5.9-4.1-5.5-11.1-5.5-11.1c0.1-6.7-1.3-7.4-1.3-7.4
		c-11.7,7.9,0.6,34.1,0.6,34.1c1.3,1.7,2.1,4.3,2.4,7.3c5.1,0.2,23.7,0.9,29.6,0.2c2.1-9.7,9.4-21.2,9.4-21.2
		c6.4-8.7,7.4-13.5,7.4-13.5C521.7,307.9,514,310.8,514,310.8z"/>
	<path class="st6" d="M430.3,453.9c0,0,11,8.7,20.9,3.5c0,0,11.6-1.4,15.9,3.8c0,0,20.6,2.4,13.4,6.6c0,0,3.6,5.6-1.8,6.7
		c0,0,0.6,5.3-4.9,6.2c0,0,0.9,5.3-3.3,5.9c0,0,3.6,3.9-2.8,4.6c0,0-9.6,3.7-27-3.2l-13.5-6.1L430.3,453.9z"/>
</g>
<g>
	<circle class="st8" cx="580" cy="385.9" r="234"/>
	<g class="st9">
		<path class="st10" d="M598.7,472.8c-15.9,16.1-30.7,28-44.6,35.7c-13.9,7.7-27.4,11.6-40.4,11.6c-22.4,0-40.6-9-54.6-27.1
			c-14-18-21-41.6-21-70.8c0-19.6,2.8-38.3,8.5-55.9c5.6-17.6,13.9-33.8,24.8-48.5c14.3-19.4,31.7-34.7,52.2-45.9
			c20.5-11.2,41.5-16.8,62.9-16.8c9.5,0,19,1.3,28.5,4c9.5,2.7,19.5,6.7,30,12l10.4-14h41.3c-4.2,10.7-8.6,27.2-13.4,49.4
			c-1.4,6.3-2.4,10.9-3,13.7l-22,103.8c-1.6,8.1-2.8,15.2-3.6,21.3c-0.8,6-1.2,11.6-1.2,16.5c0,5.9,1.9,10.9,5.8,14.7
			c3.9,3.9,8.8,5.8,14.7,5.8c8.5,0,17.2-2.7,26-8.2c8.8-5.5,17-13,24.5-22.7c12.5-15.9,22.2-34.5,29.1-55.9
			c6.9-21.4,10.4-43.4,10.4-66c0-50.4-15.5-90.7-46.4-121.2c-30.9-30.4-72.1-45.6-123.4-45.6c-30.1,0-58.2,5.1-84.2,15.2
			c-26,10.1-49.3,25-69.9,44.6c-24.4,23.2-42.6,49.2-54.6,77.9c-12,28.7-18,60.9-18,96.3c0,65.4,19.1,118,57.4,157.8
			c38.3,39.7,88.8,59.6,151.7,59.6c26,0,51.9-3.8,77.9-11.3c26-7.5,51.8-24.2,77-38.8l10.7,29.9c-30.9,17.6-61.8,31-92.6,40
			c-30.8,9-60.5,13.5-89.1,13.5c-33.1,0-64.3-5.8-93.5-17.5c-29.2-11.7-55.5-28.7-78.7-51.1c-22.2-21.6-38.9-46.9-50.1-76
			c-11.2-29-16.8-61.6-16.8-97.7c0-40.4,7.2-77.7,21.7-111.8c14.5-34.1,36-64.4,64.5-91c24.4-22.4,52.6-39.5,84.6-51.4
			c32-11.9,66-17.8,101.8-17.8c60.3,0,108.8,17.8,145.7,53.5s55.3,82.6,55.3,140.7c0,22.8-2.8,44.3-8.3,64.4
			c-5.6,20.1-13.8,38.7-24.7,55.8c-14.1,22.2-31.7,39.9-52.9,53.1c-21.2,13.2-42.1,19.8-62.7,19.8c-16.3,0-28.4-3.9-36.3-11.7
			C602.6,500.5,598.7,488.7,598.7,472.8z M600.7,285.2c-2.6-0.4-4.8-0.7-6.7-0.9c-1.9-0.2-3.5-0.3-4.9-0.3
			c-24.8,0-45.6,12.2-62.4,36.7c-16.9,24.5-25.3,55.1-25.3,91.7c0,21.2,3.7,37.3,11.2,48.2c7.4,10.9,18.3,16.4,32.6,16.4
			c9.1,0,18.3-3.2,27.5-9.5c9.2-6.3,18.6-16,28.1-28.8l21.7-121.3L600.7,285.2z"/>
	</g>
</g>
<g>
	<path class="st11" d="M585.3,459c0,0,14.8-10.1,9.6-16.3c-0.3-0.3-0.5-1.1-0.7-2c-1.9,1.6-4.6,3.7-7.6,6.3L567,463.9
		c4.5,2,7.9,3.6,9,4.1C576,468,582.4,460.3,585.3,459z"/>
	<path class="st12" d="M661.9,370.4l22.6-25.2c4.4-5.6-1.5-12.7-1.5-12.7L661,307c-6.9-8.2-12-8.5-12-8.5l-25.4-0.2
		c3.1-9,2.1-29.4,2.1-29.4c-1.1-27.4-23.3-22.9-23.3-22.9c-27.5,4.2-21.1,27.7-21.1,27.7c0,12.1,17.8,30.1,17.8,30.1l-26.9,9.7
		c-14.2,8.5-10.1,50.8-10.1,50.8c-6,18.8,8.5,25.6,8.5,25.6c0.3,5.4,6.5,13.4,6.5,13.4l-10.4,3l-1.4,9.2c-3,1.5-27.1,30.4-27.1,30.4
		c-1.4,1.9-2.5,3.6-3.6,5.2c-13.7,22.4,2.4,28.4,2.4,28.4c14,3.3,28.2-12.1,28.2-12.1l1.6-1.4l19.8-17.1c3-2.5,5.7-4.8,7.6-6.4
		c-0.4-1.6-0.7-3.7-0.8-5c0,0-8.3-10.6,0.1-11.9c0,0,4.8-26.9,6.4-29.4l5.5-1.1c0,0-0.6-26.1,13.2-36.4c0,0,3.1-13.8,0-17.9
		c0,0-6.5-13.9-0.3-18.1c0,0,0.8,0.4,0.7,3.9c0,0-0.2,3.7,2.9,5.9c0,0,5.8-8.6,5.1-14.1c0,0,0.2-2.4,2.8-2.4c0,0,2.3,0.2,2.1,3.4
		c0,0,1-2.2,3.2-2c0,0,1.9-0.3,1.7,2.9c0,0,1.3-1.5,3.4-1.1c0,0,2.6,0.6,1.2,4.4c0,0,4.1-1.5,2.9,2.7c0,0-0.5,2.5-3.9,7.2
		c0,0-5,8-5.2,13.3c0,0-4.8,9-4.2,18.3c0,0-0.8,23.1-6.7,34.1l4.7,2.1c0,0-2.8,16.1-5.6,20.5c0,0,2,8,0.7,14.8l2.9-0.3
		c-5.8,9.7,11.7,22.3,11.7,22.3c-1.9,0.8-2.1,27.8-2.1,27.8c0,7.4,14.2,12.1,14.2,12.1c1.9,3.1,3.1,19.9,3.1,19.9
		c1.1,4.2-2.9,9.7-5.2,14.1c-2.3,4.5,6,8.7,6,8.7c1.6,5.2,8.5,11.4,8.5,11.4c3.8,1.8,4.2-2,4.2-2c2.1,0.8,2.9-1.9,2.9-1.9
		c2.7,1.2,2.3-2.5,2.3-2.5c1.8,0.7,2.1-1.5,2.1-1.5c3.8,0-0.6-4.6-0.6-4.6c-6.3-5.4-7.4-14.9-7.4-14.9c-3-10.7,1.4-26.7,1.4-26.7
		c6.3-0.4,8.6-4.8,8.6-4.8c2.3-6.4-1.7-25.2-1.7-25.2c-3.3-9.4,1.9-17.1,1.9-17.1c9.6-18.6-5-27-5-27c0.8-6.2-2.3-13.9-2.3-13.9
		c2-6.2-2.6-13-2.6-13c5.6-4.8-14.4-12.5-14.4-12.5c1.3-5.9-2.2-11.5-2.2-11.5c0.5-3.6,0.5-9.8,0.5-9.8
		C655.2,369.4,661.9,370.4,661.9,370.4z"/>
	<path class="st12" d="M605.6,395.4l-5.5,1.1c-1.6,2.5-6.4,29.4-6.4,29.4c-8.4,1.2-0.1,11.9-0.1,11.9c0.1,1.3,0.4,3.4,0.8,5
		c0.3,1,0.5,1.7,0.7,2c5.2,6.2-9.7,16.4-9.7,16.4c-2.9,1.4-9.4,9.1-9.4,9.1c-1.1-0.5-4.6-2.1-9.1-4.1l-1.6,1.4
		c0,0-14.2,15.3-28.2,12.1c0,0-16.2-6.1-2.4-28.4c-0.2-0.1-0.3-0.1-0.3-0.1c-14.7-54.1-50.3-78.3-50.3-78.3
		c-17.3-9.5-17.8-15.3-17.8-15.3c-1.4-4.8-5.4-1.5-5.4-1.5c-9.7-7.6-19.8-25.1-19.8-25.1c-4-9.8-15.5-21.7-15.5-21.7
		c-0.3-8.6-6.3-9.3-6.3-9.3c-0.3-3.9-2.4-2.5-2.4-2.5c-8.3,3.5-1.4,11.6-1.4,11.6c-3.8,10.9,2.8,14,2.8,14c3.1,3,2,5,2,5
		c-13.8,21.1,2.5,19.5,2.5,19.5c22.6-2.6,20.8,23.1,20.8,23.1c-7.7,5.1-16,20.5-16,20.5c2.9,1.4,17.6,4.1,17.6,4.1
		c1.8,5.9,21.6,22.5,21.6,22.5c-0.4,6.9,21.3,32.4,21.3,32.4c3.4,8.9,2.6,23.1,2.6,23.1c-4.4,0.4-7.5,2.6-7.5,2.6l-7.3,14
		c-32.6,1.6-36.5,6.4-36.5,6.4c-2-0.7-15.6-0.6-15.6-0.6c-5.4-7.8-10.4-7.4-10.4-7.4c-7.2-0.2-1.3,6.6-1.3,6.6
		c-1.4,2.3-0.2,4.3-0.2,4.3c-28,9.5-15.6,25.6-15.6,25.6c7.5,13.6,32.9,6.7,32.9,6.7c8.2,4.3,46.4,4,46.4,4
		C477.4,548.7,519,549,519,549c9.7,5.9,22.9-0.5,22.9-0.5c11-4.1,23.4-0.4,23.4-0.4c2.3,1,13.7,1.5,13.7,1.5
		c10.9,0.9,15.6-9.8,15.6-9.8c9.5-1.5,12.6-8.3,12.6-8.3c19.4-2.7,26-18.8,26-18.8c6.5-16.7-4.7-27.6-4.7-27.6c2.3-9-2.3-18-2.3-18
		c4-9.9-4.3-24-4.3-24c1.1-1.6,1.8-3.7,2.2-5.8c1.2-6.8-0.7-14.8-0.7-14.8c2.7-4.3,5.6-20.5,5.6-20.5l-4.7-2.1
		c5.9-11.1,6.7-34.1,6.7-34.1c-0.1-0.6-0.1-1.3-0.1-2c-10.1,0.2-18,4.7-20.8,6.5C605.3,381.6,605.6,395.4,605.6,395.4z"/>
	<path class="st12" d="M620.1,345.1c0.6,5.6-1.3,14-1.3,14c-3.8,2.8-6.5,6.8-8.4,11.1c2.8-1.8,10.7-6.3,20.8-6.5
		c0.1-8.6,4.2-16.4,4.2-16.4c0.1-0.7,0.1-1.4,0.3-2.1C632.7,345.6,622.8,345.2,620.1,345.1z"/>
	<path class="st13" d="M641.8,324.1c1.4-3.8-1.2-4.4-1.2-4.4c-2.1-0.4-3.4,1.1-3.4,1.1c0.2-3.2-1.7-2.9-1.7-2.9
		c-2.3-0.2-3.2,2-3.2,2c0.2-3.3-2.1-3.4-2.1-3.4c-2.6,0-2.8,2.4-2.8,2.4c0.7,5.5-5.1,14.1-5.1,14.1c-3.1-2.2-2.9-5.9-2.9-5.9
		c0.1-3.6-0.7-3.9-0.7-3.9c-6.2,4.2,0.3,18.1,0.3,18.1c0.7,0.9,1.1,2.3,1.3,3.9c2.7,0.1,12.6,0.5,15.7,0.1c1.1-5.1,5-11.2,5-11.2
		c3.4-4.6,3.9-7.2,3.9-7.2C645.9,322.6,641.8,324.1,641.8,324.1z"/>
	<path class="st12" d="M597.4,400c0,0,5.8,4.6,11.1,1.9c0,0,6.2-0.7,8.4,2c0,0,10.9,1.3,7.1,3.5c0,0,1.9,3-1,3.6
		c0,0,0.3,2.8-2.6,3.3c0,0,0.5,2.8-1.7,3.1c0,0,1.9,2.1-1.5,2.4c0,0-5.1,2-14.3-1.7l-7.2-3.2L597.4,400z"/>
	<path class="st14" d="M661,369.1l22.4-25c4.4-5.5-1.5-12.6-1.5-12.6l-21.8-25.1c-6.9-8.1-11.9-8.5-11.9-8.5l-25.1-0.2
		c3.1-8.9,2.1-29.1,2.1-29.1c-1-27.1-23-22.6-23-22.6c-27.2,4.1-20.8,27.4-20.8,27.4c0,12,17.6,29.8,17.6,29.8l-26.7,9.6
		c-14,8.4-10,50.3-10,50.3c-5.9,18.6,8.4,25.4,8.4,25.4c0.3,5.3,6.4,13.3,6.4,13.3l-10.3,2.9l-1.4,9.1c-2.9,1.5-26.8,30.1-26.8,30.1
		c-1.4,1.8-2.5,3.6-3.5,5.2c-13.6,22.2,2.4,28.1,2.4,28.1c13.9,3.3,27.9-12,27.9-12l1.6-1.4l19.6-17c3-2.5,5.6-4.7,7.6-6.3
		c-0.4-1.6-0.7-3.6-0.8-4.9c0,0-8.2-10.5,0.1-11.8c0,0,4.7-26.6,6.3-29.1l5.5-1.1c0,0-0.6-25.8,13.1-36c0,0,3.1-13.7,0-17.7
		c0,0-6.5-13.8-0.3-17.9c0,0,0.8,0.4,0.7,3.9c0,0-0.2,3.7,2.9,5.8c0,0,5.8-8.5,5-14c0,0,0.2-2.4,2.8-2.4c0,0,2.3,0.2,2.1,3.4
		c0,0,0.9-2.2,3.2-2c0,0,1.9-0.3,1.7,2.9c0,0,1.3-1.5,3.4-1c0,0,2.6,0.6,1.2,4.4c0,0,4-1.5,2.9,2.7c0,0-0.5,2.5-3.9,7.1
		c0,0-5,7.9-5.2,13.2c0,0-4.8,8.9-4.1,18.2c0,0-0.8,22.8-6.7,33.8l4.7,2c0,0-2.8,15.9-5.5,20.3c0,0,1.9,7.9,0.7,14.6l2.8-0.3
		c-5.7,9.6,11.5,22,11.5,22c-1.9,0.8-2.1,27.5-2.1,27.5c0,7.3,14,12,14,12c1.9,3,3.1,19.7,3.1,19.7c1.1,4.1-2.9,9.6-5.2,14
		s5.9,8.7,5.9,8.7c1.6,5.2,8.4,11.3,8.4,11.3c3.7,1.8,4.1-1.9,4.1-1.9c2.1,0.8,2.9-1.9,2.9-1.9c2.6,1.2,2.3-2.5,2.3-2.5
		c1.8,0.7,2.1-1.5,2.1-1.5c3.7,0-0.6-4.6-0.6-4.6c-6.2-5.3-7.3-14.8-7.3-14.8c-2.9-10.6,1.4-26.4,1.4-26.4c6.2-0.4,8.6-4.7,8.6-4.7
		c2.3-6.4-1.7-24.9-1.7-24.9c-3.3-9.3,1.9-17,1.9-17c9.5-18.4-4.9-26.8-4.9-26.8c0.8-6.1-2.3-13.8-2.3-13.8c2-6.1-2.6-12.9-2.6-12.9
		c5.5-4.7-14.2-12.4-14.2-12.4c1.3-5.8-2.2-11.4-2.2-11.4c0.5-3.6,0.5-9.7,0.5-9.7C654.3,368.1,661,369.1,661,369.1z"/>
	<path class="st13" d="M605.2,393.9l-5.5,1.1c-1.6,2.5-6.3,29.1-6.3,29.1c-8.3,1.2-0.1,11.8-0.1,11.8c0.1,1.3,0.4,3.4,0.8,4.9
		c0.3,0.9,0.5,1.7,0.7,2c5.2,6.1-9.6,16.3-9.6,16.3c-2.9,1.4-9.3,9-9.3,9c-1.1-0.5-4.6-2-9-4.1l-1.6,1.4c0,0-14,15.2-27.9,12
		c0,0-16.1-6-2.4-28.1c-0.2-0.1-0.3-0.1-0.3-0.1c-14.5-53.5-49.8-77.5-49.8-77.5c-17.2-9.4-17.6-15.2-17.6-15.2
		c-1.4-4.7-5.3-1.5-5.3-1.5c-9.6-7.6-19.6-24.9-19.6-24.9c-3.9-9.7-15.4-21.5-15.4-21.5c-0.3-8.6-6.2-9.2-6.2-9.2
		c-0.3-3.8-2.4-2.5-2.4-2.5c-8.2,3.5-1.4,11.5-1.4,11.5c-3.5,10.6,3,13.6,3,13.6c3.1,2.9,2,4.9,2,4.9c-13.7,20.8,2.5,19.3,2.5,19.3
		c22.4-2.6,20.6,22.8,20.6,22.8c-7.7,5.1-15.8,20.3-15.8,20.3c2.9,1.4,17.4,4,17.4,4c1.8,5.8,21.4,22.3,21.4,22.3
		c-0.4,6.9,21.1,32.1,21.1,32.1c3.4,8.8,2.6,22.8,2.6,22.8c-4.4,0.4-7.4,2.6-7.4,2.6l-7.2,13.9c-32.3,1.6-36.2,6.3-36.2,6.3
		c-2-0.7-15.5-0.6-15.5-0.6c-5.3-7.8-10.3-7.4-10.3-7.4c-7.1-0.2-1.3,6.5-1.3,6.5c-1.4,2.3-0.2,4.3-0.2,4.3
		c-27.7,9.4-15.4,25.4-15.4,25.4c7.5,13.4,32.6,6.6,32.6,6.6c8.1,4.3,45.9,4,45.9,4c1.8,13.1,43,13.4,43,13.4
		c9.6,5.9,22.6-0.5,22.6-0.5c10.9-4,23.2-0.4,23.2-0.4c2.3,1,13.5,1.5,13.5,1.5c10.8,0.9,15.5-9.7,15.5-9.7
		c9.5-1.5,12.4-8.2,12.4-8.2c19.2-2.7,25.7-18.6,25.7-18.6c6.4-16.5-4.7-27.4-4.7-27.4c2.3-8.9-2.3-17.8-2.3-17.8
		c3.9-9.8-4.3-23.8-4.3-23.8c1.1-1.6,1.8-3.6,2.2-5.7c1.2-6.8-0.7-14.6-0.7-14.6c2.7-4.3,5.5-20.3,5.5-20.3l-4.7-2
		c5.8-11,6.7-33.8,6.7-33.8c-0.1-0.6-0.1-1.3-0.1-1.9c-10,0.2-17.8,4.6-20.6,6.4C604.9,380.2,605.2,393.9,605.2,393.9z"/>
	<path class="st14" d="M619.5,344c0.6,5.6-1.3,13.9-1.3,13.9c-3.7,2.8-6.4,6.7-8.3,11c2.7-1.8,10.6-6.2,20.6-6.4
		c0.1-8.5,4.2-16.2,4.2-16.2c0.1-0.7,0.1-1.4,0.3-2C632,344.5,622.2,344.1,619.5,344z"/>
	<path class="st14" d="M597.1,398.4c0,0,5.8,4.6,11,1.8c0,0,6.1-0.7,8.3,2c0,0,10.8,1.3,7,3.5c0,0,1.9,2.9-0.9,3.5
		c0,0,0.3,2.8-2.6,3.3c0,0,0.5,2.8-1.7,3.1c0,0,1.9,2-1.5,2.4c0,0-5,1.9-14.2-1.7l-7.1-3.2L597.1,398.4z"/>
</g>
</svg>
