<?xml version="1.0" encoding="utf-8"?>
<!-- Generator: Adobe Illustrator 23.0.0, SVG Export Plug-In . SVG Version: 6.00 Build 0)  -->
<svg version="1.1" id="Layer_1" xmlns="http://www.w3.org/2000/svg" xmlns:xlink="http://www.w3.org/1999/xlink" x="0px" y="0px"
	 viewBox="0 0 941.5 824.8" style="enable-background:new 0 0 941.5 824.8;" xml:space="preserve">
<style type="text/css">
	.st0{opacity:0.1;fill:#1C3ED3;enable-background:new    ;}
	.st1{fill:#E6E8EC;}
	.st2{fill:none;stroke:#00FFFF;stroke-miterlimit:10;}
	.st3{opacity:0.1;enable-background:new    ;}
	.st4{fill:none;}
	.st5{fill:#66B6FF;}
	.st6{fill:#3C3C3C;}
</style>
<title>businesswoman</title>
<ellipse transform="matrix(0.1368 -0.9906 0.9906 0.1368 -448.889 1006.1681)" class="st0" cx="352.9" cy="760.7" rx="42.4" ry="356.1"/>
<path class="st0" d="M20.4,568.9c6.4,15.5,14.8,30.3,26.6,41.6c14.3,13.8,32.1,21.4,51.2,25c5.6,1,11.3,1.8,17,2.2
	c15.1,1.2,30.5,0.4,45.3-1.2c36.3-4,72-11.6,106.7-22.8c5.7-1.8,11.4-3.8,17-5.8c8.5-3,16.9-6.3,25.3-9.8
	c34-14.2,69.1-32.3,105.3-26.7c17.5,2.7,34,11,51.6,13.5c12.3,1.6,24.9,0.7,36.8-2.6c5.8-1.6,11.5-3.5,17-5.9
	c12.4-5.4,24.3-12.1,35.3-20c26.5-18.5,50.3-41.5,78.2-57.5c30.8-17.7,64.8-26.1,99.5-32.4c5.7-1,11.3-2,17-2.9
	c16-2.6,32.1-5.1,48-8c15.3-2.8,30.8-6.3,44.1-14.8c9.5-6,17.5-14.4,24.8-23.3c13.5-16.4,25.1-34.2,34.5-53.2c0.5-1,1-2,1.5-3
	c14.7-30.1,24.6-63,30.6-97c0.2-1,0.3-2,0.5-3c5.7-33.3,7.8-67.8,7.2-102l-0.1-3c-0.4-16.9-1.4-33.7-3-50.3
	c-1.1-11.7-2.6-23.8-8.7-33.6s-15.9-16.1-25.7-21.3C860.6,28,819.1,21.6,772.5,32.8c-7.5,1.8-14.9,3.7-22.4,5.7
	c-5.7,1.5-11.3,3.1-17,4.7C694,54.1,655,65.7,614.6,69.1c-3.9,0.3-7.8,0.6-11.7,0.8c-7.7,0.4-15.5,0.4-23.2,0.2
	c-19.9-0.6-39.8-2.6-59.4-6.1c-5.7-1-11.3-2.1-17-3.3c-24.4-5.1-48.6-11.9-72.4-19.4c-4.9-1.5-9.7-3.1-14.6-4.7
	c-10.9-3.6-21.8-7.2-32.8-10.8C350.8,15.2,318,5.5,284.2,1.6c-2.9-0.3-5.8-0.6-8.7-0.9c-2.8-0.2-5.5-0.4-8.3-0.6
	c-52.5-2.8-105.5,9.8-152,35.7c-5.8,3.2-11.4,6.6-17,10.2C90.5,51,83,56.4,75.8,62.2C60.9,74.4,47,87.9,36.4,104.1
	c-10.3,15.8-17,33.5-20.9,52.2c-0.2,1-0.4,2-0.6,3c-5.6,30.1-3.9,62.4,2.4,92.5c0.7,3.2,1.4,6.3,2.1,9.5c0.2,1,0.5,2,0.7,3
	c6.8,28.5,15.6,56.9,13.3,86.1c-0.3,3.7-0.8,7.3-1.4,10.9c-0.2,1-0.3,2-0.5,3C27.2,388,17.1,410.6,11,434.2
	C-0.4,478.9,2.9,526.1,20.4,568.9z"/>
<path class="st0" d="M98.2,261.3H19.6c0.2,1,0.5,2,0.7,3h77.9v97h-66c-0.2,1-0.3,2-0.5,3h66.5v271.2c5.6,1,11.3,1.8,17,2.2V364.3
	h152v249.4c5.7-1.8,11.4-3.8,17-5.8V364.3h219v217.9c5.8-1.6,11.5-3.5,17-5.9v-212h213v102.1c5.7-1,11.3-2,17-2.9v-99.2h151.5
	c0.5-1,1-2,1.5-3h-153v-97h183.6c0.2-1,0.3-2,0.5-3H750.2v-102h191.2l-0.1-3H750.2V38.5c-5.7,1.5-11.3,3.1-17,4.7v113.1h-208
	l-0.5-0.6l78.2-85.8c-7.7,0.4-15.5,0.4-23.2,0.2l-59.4,65.2V64c-5.7-1-11.3-2.1-17-3.3V132l-86.9-95.4c-10.9-3.6-21.8-7.2-32.8-10.8
	l118.2,129.7l-0.5,0.6h-217V1.8c-2.9-0.3-5.8-0.6-8.7-0.9c-2.8-0.2-5.5-0.4-8.3-0.6v155.9h-152V36.1c-5.8,3.2-11.4,6.6-17,10.2
	v109.9H15.6c-0.2,1-0.4,2-0.6,3h83.2V261.3z M267.2,159.3v102h-152v-102L267.2,159.3L267.2,159.3z M284.2,159.3h219v102h-219V159.3z
	 M733.2,261.3h-213V162l3-2.7h210V261.3z M520.2,361.3v-97h213v97H520.2z M284.2,361.3v-97h219v97H284.2z M115.2,264.3h152v97h-152
	L115.2,264.3L115.2,264.3z"/>
<path class="st0" d="M188.2,89h1.3c-0.9-0.5-1.5-1.5-1.6-2.6l0,0c0-2.1,2.5-3.8,5.6-3.8H233c3.1,0,5.6,1.7,5.6,3.8l0,0
	c0,2.1-2.5,3.8-5.6,3.8h-1.3c0.9,0.6,1.5,1.5,1.6,2.6c0,1.8-1.8,3.2-4.3,3.6h11.4c3.1,0,5.6,1.7,5.6,3.8s-2.5,3.8-5.6,3.8H201
	c-3.1,0-5.6-1.7-5.6-3.8c0-1.8,1.8-3.2,4.3-3.6h-11.3c-3.1,0-5.6-1.7-5.6-3.8S185.1,89,188.2,89z"/>
<path class="st0" d="M615.4,124.8h1.3c-0.9-0.6-1.5-1.5-1.6-2.6l0,0c0-2.1,2.5-3.8,5.6-3.8h39.4c3.1,0,5.6,1.7,5.6,3.8l0,0
	c0,2.1-2.5,3.8-5.6,3.8h-1.3c0.9,0.6,1.5,1.5,1.6,2.6c0,1.8-1.8,3.2-4.3,3.6h11.3c3.1,0,5.6,1.7,5.6,3.8s-2.5,3.8-5.6,3.8H628
	c-3.1,0-5.6-1.7-5.6-3.8c0-1.8,1.8-3.2,4.3-3.6h-11.3c-3.1,0-5.6-1.7-5.6-3.8S612.3,124.8,615.4,124.8z"/>
<path class="st0" d="M127.8,277.9h1.3c-0.9-0.5-1.5-1.5-1.6-2.6l0,0c0-2.1,2.5-3.8,5.6-3.8h39.4c3.1,0,5.6,1.7,5.6,3.8l0,0
	c0,2.1-2.5,3.8-5.6,3.8h-1.3c0.9,0.5,1.5,1.5,1.6,2.6c0,1.8-1.8,3.2-4.3,3.6h11.3c3.1,0,5.6,1.7,5.6,3.8s-2.5,3.8-5.6,3.8h-39.4
	c-3.1,0-5.6-1.7-5.6-3.8c0-1.8,1.8-3.2,4.3-3.6h-11.4c-3.1,0-5.6-1.7-5.6-3.8S124.8,277.9,127.8,277.9z"/>
<path class="st1" d="M431.4,182.2l-1.7,1.2c-0.1,0.1-0.3,0.1-0.4-0.1l0,0c-0.1-0.1-0.1-0.3,0.1-0.4l1.7-1.2c0.1-0.1,0.3-0.1,0.4,0.1
	l0,0C431.6,181.9,431.6,182.1,431.4,182.2z"/>
<circle class="st1" cx="428.8" cy="183.7" r="0.3"/>
<path class="st2" d="M384.4,223.4l0.1-0.1L384.4,223.4z"/>
<path class="st3" d="M514.4,289.7c-0.2,0.5-5.2,10.5-1.8,11.6S514.4,289.7,514.4,289.7z"/>
<path class="st3" d="M499.4,275.8c0,0-7.6,2.7-8.9,4S499.4,275.8,499.4,275.8z"/>
<path class="st3" d="M525,268.4c-3.5-0.2-16.1-3.5-16.6-2.4S525,268.4,525,268.4z"/>
<g>
	<path class="st4" d="M407.9,569.2c0,0,28.1-19.3,18.2-31c-0.5-0.5-1-2-1.4-3.8c-3.7,3-8.7,7.1-14.4,12L373,578.6
		c8.5,3.9,15,6.9,17.1,7.8C390.1,586.4,402.4,571.8,407.9,569.2z"/>
	<path class="st5" d="M552,398l42.7-47.6c8.3-10.5-2.8-24-2.8-24l-41.6-47.9c-13.1-15.4-22.6-16.1-22.6-16.1l-47.9-0.4
		c5.9-16.9,4-55.4,4-55.4c-2-51.7-43.9-43.1-43.9-43.1c-51.8,7.9-39.7,52.2-39.7,52.2c0,22.8,33.5,56.8,33.5,56.8l-50.8,18.3
		c-26.7,16-19,95.8-19,95.8c-11.3,35.4,16,48.3,16,48.3c0.6,10.1,12.2,25.3,12.2,25.3l-19.6,5.6l-2.7,17.4
		c-5.6,2.8-51.1,57.3-51.1,57.3c-2.6,3.5-4.8,6.8-6.7,9.9c-25.9,42.2,4.6,53.6,4.6,53.6c26.4,6.2,53.1-22.8,53.1-22.8l3-2.6
		l37.3-32.3c5.7-4.8,10.7-9,14.4-12c-0.7-3-1.4-6.9-1.6-9.4c0,0-15.7-20,0.2-22.4c0,0,9-50.7,12-55.4l10.4-2c0,0-1.2-49.2,24.9-68.6
		c0,0,5.9-26.1,0-33.7c0,0-12.3-26.3-0.6-34.1c0,0,1.5,0.7,1.3,7.4c0,0-0.4,7,5.5,11.1c0,0,11-16.2,9.6-26.6c0,0,0.4-4.5,5.3-4.5
		c0,0,4.3,0.3,4,6.5c0,0,1.8-4.1,6.1-3.8c0,0,3.6-0.6,3.3,5.5c0,0,2.5-2.8,6.5-2c0,0,4.9,1.1,2.2,8.3c0,0,7.7-2.8,5.5,5.1
		c0,0-1,4.8-7.4,13.5c0,0-9.5,15-9.9,25.1c0,0-9.1,17-7.9,34.6c0,0-1.6,43.5-12.7,64.4l8.9,3.9c0,0-5.3,30.3-10.5,38.6
		c0,0,3.7,15,1.4,27.9l5.4-0.6c-10.9,18.2,22,42,22,42c-3.6,1.5-4,52.4-4,52.4c0,14,26.7,22.8,26.7,22.8c3.6,5.8,5.9,37.5,5.9,37.5
		c2,7.9-5.5,18.2-9.9,26.6c-4.4,8.4,11.3,16.5,11.3,16.5c3,9.9,16,21.5,16,21.5c7.1,3.4,7.9-3.7,7.9-3.7c4,1.6,5.5-3.6,5.5-3.6
		c5,2.2,4.4-4.7,4.4-4.7c3.4,1.3,4-2.8,4-2.8c7.1,0-1.1-8.7-1.1-8.7c-11.9-10.1-13.9-28.1-13.9-28.1c-5.6-20.2,2.7-50.3,2.7-50.3
		c11.9-0.8,16.3-9,16.3-9c4.4-12.1-3.3-47.5-3.3-47.5c-6.2-17.7,3.6-32.3,3.6-32.3c18.1-35.1-9.4-51-9.4-51
		c1.6-11.6-4.4-26.2-4.4-26.2c3.8-11.6-4.9-24.5-4.9-24.5c10.5-9-27.1-23.6-27.1-23.6c2.4-11.1-4.2-21.7-4.2-21.7
		c1-6.8,1-18.5,1-18.5C539.3,396.1,552,398,552,398z"/>
	<path class="st6" d="M445.7,445.2l-10.4,2c-3,4.8-12,55.4-12,55.4c-15.9,2.3-0.2,22.4-0.2,22.4c0.2,2.4,0.8,6.4,1.6,9.4
		c0.5,1.8,1,3.3,1.4,3.8c9.9,11.7-18.2,31-18.2,31c-5.5,2.6-17.8,17.2-17.8,17.2c-2.1-0.9-8.7-3.9-17.1-7.8l-3,2.6
		c0,0-26.7,28.9-53.1,22.8c0,0-30.6-11.5-4.6-53.6c-0.3-0.1-0.5-0.2-0.5-0.2c-27.7-102-94.8-147.7-94.8-147.7
		c-32.7-18-33.6-28.9-33.6-28.9c-2.6-9-10.1-2.8-10.1-2.8C155,356.4,136,323.4,136,323.4c-7.5-18.4-29.3-41-29.3-41
		c-0.6-16.3-11.9-17.6-11.9-17.6c-0.6-7.3-4.5-4.7-4.5-4.7c-15.6,6.6-2.6,21.9-2.6,21.9c-7.1,20.6,5.3,26.4,5.3,26.4
		c5.9,5.6,3.8,9.4,3.8,9.4c-26.1,39.7,4.8,36.7,4.8,36.7c42.7-4.9,39.2,43.5,39.2,43.5c-14.6,9.7-30.1,38.6-30.1,38.6
		c5.5,2.6,33.2,7.7,33.2,7.7c3.4,11.1,40.8,42.5,40.8,42.5c-0.8,13.1,40.2,61.1,40.2,61.1c6.5,16.7,4.9,43.5,4.9,43.5
		c-8.3,0.7-14.1,4.9-14.1,4.9L202,622.7c-61.5,3-68.9,12-68.9,12c-3.8-1.3-29.5-1.1-29.5-1.1c-10.1-14.8-19.6-14-19.6-14
		c-13.5-0.4-2.4,12.4-2.4,12.4c-2.6,4.3-0.4,8.2-0.4,8.2c-52.8,18-29.4,48.3-29.4,48.3c14.2,25.6,62,12.6,62,12.6
		c15.4,8.2,87.5,7.6,87.5,7.6c3.4,24.9,81.9,25.5,81.9,25.5c18.2,11.2,43.1-0.9,43.1-0.9c20.8-7.7,44.1-0.8,44.1-0.8
		c4.4,1.9,25.8,2.9,25.8,2.9c20.6,1.7,29.5-18.4,29.5-18.4c18-2.9,23.7-15.6,23.7-15.6c36.5-5.1,49-35.4,49-35.4
		c12.2-31.5-8.9-52.1-8.9-52.1c4.4-17-4.4-33.9-4.4-33.9c7.5-18.7-8.1-45.3-8.1-45.3c2.1-3.1,3.4-6.9,4.1-10.9
		c2.3-12.9-1.4-27.9-1.4-27.9c5.1-8.2,10.5-38.6,10.5-38.6l-8.9-3.9c11.1-21,12.7-64.4,12.7-64.4c-0.1-1.2-0.1-2.5-0.1-3.7
		c-19.1,0.4-34,8.8-39.3,12.2C445.1,419.1,445.7,445.2,445.7,445.2z"/>
	<path class="st5" d="M473,350.3c1.2,10.6-2.4,26.4-2.4,26.4c-7.1,5.3-12.2,12.8-15.8,20.9c5.2-3.4,20.1-11.8,39.3-12.2
		c0.2-16.2,8-30.9,8-30.9c0.1-1.3,0.2-2.6,0.5-3.9C496.8,351.2,478.1,350.5,473,350.3z"/>
	<path class="st6" d="M514,310.8c2.7-7.2-2.2-8.3-2.2-8.3c-4-0.8-6.5,2-6.5,2c0.3-6-3.3-5.5-3.3-5.5c-4.3-0.3-6.1,3.8-6.1,3.8
		c0.3-6.2-4-6.5-4-6.5c-4.9,0-5.3,4.5-5.3,4.5c1.3,10.4-9.6,26.6-9.6,26.6c-5.9-4.1-5.5-11.1-5.5-11.1c0.1-6.7-1.3-7.4-1.3-7.4
		c-11.7,7.9,0.6,34.1,0.6,34.1c1.3,1.7,2.1,4.3,2.4,7.3c5.1,0.2,23.7,0.9,29.6,0.2c2.1-9.7,9.4-21.2,9.4-21.2
		c6.4-8.7,7.4-13.5,7.4-13.5C521.7,307.9,514,310.8,514,310.8z"/>
	<path class="st5" d="M430.3,453.9c0,0,11,8.7,20.9,3.5c0,0,11.6-1.4,15.9,3.8c0,0,20.6,2.4,13.4,6.6c0,0,3.6,5.6-1.8,6.7
		c0,0,0.6,5.3-4.9,6.2c0,0,0.9,5.3-3.3,5.9c0,0,3.6,3.9-2.8,4.6c0,0-9.6,3.7-27-3.2l-13.5-6.1L430.3,453.9z"/>
</g>
</svg>
